<svg xmlns="http://www.w3.org/2000/svg" width="50" height="50" viewBox="0 0 50 50"><circle cx="25" cy="25" r="25" fill="#5b7db9"/><path d="M34.25,43.928H31.72a1.231,1.231,0,0,0-1.231,1.231V48.4H13.845c.007-.081.012-.163.012-.246v-.815a2.712,2.712,0,0,0-2.709-2.709h-5.7c-.083,0-.165.005-.246.012V39.714A1.231,1.231,0,0,0,3.97,38.483H1.231A1.231,1.231,0,0,0,0,39.714V60.1a1.231,1.231,0,0,0,1.231,1.231H3.97A1.231,1.231,0,0,0,5.2,60.1V57.63H30.489V60.1a1.231,1.231,0,0,0,1.231,1.231h2.53A1.231,1.231,0,0,0,35.481,60.1V45.159A1.231,1.231,0,0,0,34.25,43.928Zm-3.761,8.8H5.2V50.858H30.489Z" transform="translate(7.647 -26.134)" fill="#fff"/></svg>