<svg xmlns="http://www.w3.org/2000/svg" width="50" height="51" viewBox="0 0 50 51"><ellipse cx="25" cy="25.5" rx="25" ry="25.5" fill="#5b7db9"/><g transform="translate(8.268 11.986)"><path d="M31.73,79.238,17.954,70.61v-.648a1.14,1.14,0,0,1,.618-.97c.052-.035.113-.072.182-.113a3.634,3.634,0,0,0,2.062-3.187,4.115,4.115,0,0,0-3.239-3.859,4.281,4.281,0,0,0-5.4,4.293c0,.1-.007.3-.009.508,0,.281.551.509,1.235.509h.248c.684,0,1.24-.227,1.241-.507,0-.232,0-.465,0-.509.038-.921.286-1.464,1.226-1.654a1.819,1.819,0,0,1,1.586.408.94.94,0,0,1,.232.74,1.086,1.086,0,0,1-.468.815l-1.18.8a2.077,2.077,0,0,0-1.073,1.928v1.443l-13.637,8.6a3.49,3.49,0,0,0,2.149,6.411H29.75a3.475,3.475,0,0,0,3.438-2.451A3.542,3.542,0,0,0,31.73,79.238Zm-1.4,3a.642.642,0,0,1-.62.474H3.7a.642.642,0,0,1-.628-.44.618.618,0,0,1,.27-.7l13.33-8.343,13.4,8.379A.535.535,0,0,1,30.33,82.241Z" transform="translate(0 -61.712)" fill="#fff"/></g></svg>