<svg xmlns="http://www.w3.org/2000/svg" width="50" height="50" viewBox="0 0 50 50"><circle cx="25" cy="25" r="25" fill="#5b7db9"/><g transform="translate(12 -44.757)"><g transform="translate(0 54.113)"><path d="M.989,80.742H21.92a.989.989,0,0,0,.989-.989V66.768a2.839,2.839,0,0,0-.683-1.7L16.382,58.95a2.648,2.648,0,0,0-1.673-.715H12.3c1.17-2.457,3.939-3.784,7.162-2.235a19.485,19.485,0,0,1,5.681,4.849l-1.726,1.726L30.037,69.2l4-4-6.625-6.625-1.492,1.492C23.238,57.1,19.97,53.778,15.8,54.14a5.5,5.5,0,0,0-4.791,4.094H8.2a2.649,2.649,0,0,0-1.673.715L.683,65.063A2.843,2.843,0,0,0,0,66.767V79.752A.989.989,0,0,0,.989,80.742ZM27.355,61.37a.81.81,0,0,1-1.145,1.145A.794.794,0,0,1,26,61.808c.106.119.214.24.319.356.483.533,1.268-.257.787-.787l-.2-.221A.788.788,0,0,1,27.355,61.37ZM10.961,63.4c.211.683,1.286.392,1.074-.3-.039-.126-.072-.253-.1-.378a1.021,1.021,0,1,1-1.114.109C10.859,63.028,10.9,63.218,10.961,63.4Zm-9.07,2.814L7.728,60.11A1.171,1.171,0,0,1,8.2,59.9h2.461a9.043,9.043,0,0,0-.056,1.183,2.692,2.692,0,1,0,1.1-.125,6.66,6.66,0,0,1,.08-1.057H14.7a1.174,1.174,0,0,1,.473.2l5.841,6.11a1.342,1.342,0,0,1,.224.554v12.3H1.67v-12.3A1.339,1.339,0,0,1,1.891,66.217Z" transform="translate(0 -54.113)" fill="#fff"/><path d="M39.009,283.431H55.394a.634.634,0,0,0,.634-.634v-5.851h-.014c0-.038.012-.07.012-.111a1.649,1.649,0,0,0-1.649-1.649,1.628,1.628,0,0,0-.73.178.925.925,0,0,0-.778-.425.947.947,0,0,0-.138.014,1.885,1.885,0,0,0-3.124.947,1.271,1.271,0,0,0-1.738.3,2.719,2.719,0,0,0-1.719-.518,2.588,2.588,0,0,0-1.788.588.995.995,0,0,0-.966-.018.944.944,0,0,0-1.794-.265,1.744,1.744,0,0,0-1.99.619.671.671,0,0,0-.554-.306.679.679,0,0,0-.676.647h-.008V282.8A.634.634,0,0,0,39.009,283.431Z" transform="translate(-35.746 -259.358)" fill="#fff"/></g></g></svg>