<svg xmlns="http://www.w3.org/2000/svg" width="51" height="51" viewBox="0 0 51 51"><circle cx="25.5" cy="25.5" r="25.5" fill="#5b7db9"/><g transform="translate(13.024 9.693)"><circle cx="0.742" cy="0.742" r="0.742" transform="translate(1.669 3.682)" fill="#fff"/><circle cx="0.742" cy="0.742" r="0.742" transform="translate(4.051 3.682)" fill="#fff"/><circle cx="0.742" cy="0.742" r="0.742" transform="translate(17.566 3.682)" fill="#fff"/><circle cx="0.742" cy="0.742" r="0.742" transform="translate(19.948 3.682)" fill="#fff"/><circle cx="0.742" cy="0.742" r="0.742" transform="translate(22.33 3.682)" fill="#fff"/><path d="M120.991,167.047a6.56,6.56,0,1,0-6.56-6.56A6.567,6.567,0,0,0,120.991,167.047Zm0-11.778a5.218,5.218,0,0,1,5.217,5.218c0,.038,0,.076,0,.114a1.374,1.374,0,0,1-.957.364,1.486,1.486,0,0,1-1.087-.476,1.388,1.388,0,0,0-2.052,0,1.479,1.479,0,0,1-2.174,0,1.388,1.388,0,0,0-2.051,0,1.485,1.485,0,0,1-1.087.476,1.42,1.42,0,0,1-1.021-.419c0-.02,0-.039,0-.059A5.218,5.218,0,0,1,120.991,155.269Z" transform="translate(-108.249 -142.412)" fill="#fff"/><path d="M31.8,103.32H57.281V78.988H31.8ZM44.539,83.1a8.056,8.056,0,1,1-8.056,8.056A8.065,8.065,0,0,1,44.539,83.1Z" transform="translate(-31.797 -73.079)" fill="#fff"/><rect width="25.484" height="2.618" transform="translate(0)" fill="#fff"/></g></svg>