<svg xmlns="http://www.w3.org/2000/svg" width="50" height="50" viewBox="0 0 50 50"><circle cx="25" cy="25" r="25" fill="#5b7db9"/><g transform="translate(10.43 8.924)"><g transform="translate(0 0)"><path d="M3.806,9.039a12.4,12.4,0,0,1,7.449-5.256.763.763,0,0,0,.468-1.148A5.611,5.611,0,1,0,2.568,9.1a.765.765,0,0,0,1.238-.056Z" transform="translate(-1.354 0)" fill="#fff"/><path d="M33.361,0a5.6,5.6,0,0,0-4.74,2.615.763.763,0,0,0,.47,1.152,12.394,12.394,0,0,1,7.481,5.217.765.765,0,0,0,1.242.044A5.609,5.609,0,0,0,33.361,0Z" transform="translate(-10.638 0)" fill="#fff"/><path d="M28.894,19.7A12.367,12.367,0,0,0,18.4,7.491a12.345,12.345,0,0,0-1.877-.158A12.544,12.544,0,0,0,5.67,13.777,12.323,12.323,0,0,0,8.328,28.942L7.286,30.41a1.4,1.4,0,1,0,2.289,1.627l1.042-1.467a12.347,12.347,0,0,0,11.815,0l1.042,1.467a1.4,1.4,0,0,0,2.289-1.627L24.72,28.942A12.328,12.328,0,0,0,28.894,19.7ZM16.525,28.614a8.91,8.91,0,1,1,8.91-8.912A8.92,8.92,0,0,1,16.525,28.614Z" transform="translate(-2.312 -2.508)" fill="#fff"/><path d="M27.079,24.949l-3.4-2.1a1.624,1.624,0,0,0-.588-.983l.155-4.265a.987.987,0,0,0-1.973-.072l-.156,4.27a1.64,1.64,0,0,0,1.663,2.816l3.26,2.015a.988.988,0,1,0,1.037-1.681Z" transform="translate(-7.874 -5.669)" fill="#fff"/></g></g></svg>