<svg xmlns="http://www.w3.org/2000/svg" width="21" height="30" viewBox="0 0 21 30"><rect width="21" height="30" rx="10.5" fill="#464545" opacity="0.163"/><g transform="translate(4.498 21.81) rotate(-90)"><g transform="translate(0)"><path d="M12.86,4.59l.021,0H3.763L6.63,1.722a.753.753,0,0,0,0-1.058L6.184.218a.746.746,0,0,0-1.053,0L.217,5.13a.751.751,0,0,0,0,1.057L5.131,11.1a.747.747,0,0,0,1.053,0l.446-.446a.738.738,0,0,0,.217-.526.716.716,0,0,0-.217-.517l-2.9-2.889H12.87a.772.772,0,0,0,.756-.764V5.327A.757.757,0,0,0,12.86,4.59Z" fill="#fff"/></g></g></svg>