<svg xmlns="http://www.w3.org/2000/svg" width="329.488" height="169.708" viewBox="0 0 329.488 169.708">
  <g id="Group_67" data-name="Group 67" transform="translate(-331.52 -400.128)">
    <g id="Group_53" data-name="Group 53" transform="translate(398.189 449.221)">
      <path id="Path_60" data-name="Path 60" d="M372.03,452.648l-20.161-20.167,4.838-4.832,15.323,15.328,22.813-22.813a28.636,28.636,0,1,0,5.962,17.413,28.3,28.3,0,0,0-2.388-11.317Z" transform="translate(-343.385 -408.865)" fill="#63b286"/>
      <path id="Path_61" data-name="Path 61" d="M349.733,418.36l-4.838,4.832,20.161,20.167,26.386-26.387c-.258-.6-.489-1.191-.787-1.776l-2.405-3.854c-.112-.163-.258-.3-.382-.467l-22.813,22.813Z" transform="translate(-336.411 -399.576)" fill="#fff"/>
    </g>
    <g id="Group_63" data-name="Group 63" transform="translate(331.52 400.128)">
      <g id="Group_54" data-name="Group 54" transform="translate(228.78 40.091)">
        <rect id="Rectangle_74" data-name="Rectangle 74" width="6.637" height="75.605" fill="#464545"/>
      </g>
      <g id="Group_57" data-name="Group 57" transform="translate(245.557 36.77)">
        <g id="Group_55" data-name="Group 55" transform="translate(0 3.321)">
          <rect id="Rectangle_75" data-name="Rectangle 75" width="6.643" height="75.605" fill="#464545"/>
        </g>
        <g id="Group_56" data-name="Group 56" transform="translate(0.002)">
          <path id="Path_62" data-name="Path 62" d="M457.466,485.6h-6.642V447.8a34.481,34.481,0,1,0-68.961,0h-6.642a41.122,41.122,0,1,1,82.244,0Z" transform="translate(-375.222 -406.672)" fill="#464545"/>
        </g>
      </g>
      <g id="Group_60" data-name="Group 60" transform="translate(0 36.77)">
        <g id="Group_58" data-name="Group 58" transform="translate(0 3.321)">
          <rect id="Rectangle_76" data-name="Rectangle 76" width="6.637" height="75.605" fill="#464545"/>
        </g>
        <g id="Group_59" data-name="Group 59" transform="translate(0.001)">
          <path id="Path_63" data-name="Path 63" d="M338.156,447.8H331.52a41.138,41.138,0,0,1,58.656-37.209l-2.837,6.007a34.1,34.1,0,0,0-14.7-3.281A34.525,34.525,0,0,0,338.156,447.8Z" transform="translate(-331.52 -406.672)" fill="#464545"/>
        </g>
      </g>
      <g id="Group_61" data-name="Group 61" transform="translate(140.631)">
        <path id="Path_64" data-name="Path 64" d="M397.684,519.142a41.174,41.174,0,0,1-41.136-41.119v-77.9h6.642v77.9a34.483,34.483,0,1,0,8.619-22.807l-4.984-4.388a41.126,41.126,0,1,1,30.859,68.315Z" transform="translate(-356.548 -400.128)" fill="#464545"/>
      </g>
      <g id="Group_62" data-name="Group 62" transform="translate(54.594 36.782)">
        <path id="Path_65" data-name="Path 65" d="M382.355,488.924a41.125,41.125,0,1,1,41.125-41.131A41.173,41.173,0,0,1,382.355,488.924Zm0-75.614a34.486,34.486,0,1,0,34.489,34.483A34.521,34.521,0,0,0,382.355,413.31Z" transform="translate(-341.236 -406.674)" fill="#464545"/>
      </g>
    </g>
    <g id="Group_65" data-name="Group 65" transform="translate(331.801 535.258)">
      <g id="Group_64" data-name="Group 64">
        <path id="Path_66" data-name="Path 66" d="M358.232,425.849v26.24h-2.6v-5.574a12.272,12.272,0,0,1-10.732,6,13.492,13.492,0,0,1,0-26.982,11.907,11.907,0,0,1,10.732,6.057v-5.737Zm-24.06,13.12c0,6.585,4.782,11,10.726,11,14.609,0,14.609-21.942,0-21.942A10.5,10.5,0,0,0,334.172,438.969Z" transform="translate(-331.57 -417.932)" fill="#63b286"/>
        <path id="Path_67" data-name="Path 67" d="M359.238,430.72a11.225,11.225,0,0,0-8.181-2.764c-4.091-.051-8.024,1.483-7.917,4.832.107,3.506,4.675,4.2,7.968,4.782,4.675.8,11.1,1.6,10.839,7.7-.157,5.793-6.164,7.327-10.783,7.327s-9.193-1.747-11.474-5.254l1.911-1.7c2.18,3.135,6.108,4.462,9.614,4.462,3.186,0,8.024-.849,8.187-4.99.1-3.776-4.253-4.518-8.558-5.209-5.1-.849-10.148-1.809-10.2-7.063-.05-5.153,5.1-7.389,10.412-7.333a13.771,13.771,0,0,1,9.771,3.506Z" transform="translate(-294.064 -418.021)" fill="#63b286"/>
        <path id="Path_68" data-name="Path 68" d="M366.352,430.72a11.232,11.232,0,0,0-8.181-2.764c-4.091-.051-8.029,1.483-7.917,4.832.107,3.506,4.669,4.2,7.968,4.782,4.675.8,11.1,1.6,10.833,7.7-.157,5.793-6.158,7.327-10.783,7.327s-9.187-1.747-11.474-5.254l1.916-1.7c2.174,3.135,6.108,4.462,9.608,4.462,3.192,0,8.03-.849,8.187-4.99.107-3.776-4.254-4.518-8.558-5.209-5.1-.849-10.142-1.809-10.2-7.063-.05-5.153,5.1-7.389,10.417-7.333a13.771,13.771,0,0,1,9.771,3.506Z" transform="translate(-261.233 -418.021)" fill="#63b286"/>
        <path id="Path_69" data-name="Path 69" d="M354.181,425.567v26.347h2.607V425.567Z" transform="translate(-227.132 -417.757)" fill="#63b286"/>
        <path id="Path_70" data-name="Path 70" d="M377.633,430.72a11.225,11.225,0,0,0-8.181-2.764c-4.091-.051-8.024,1.483-7.917,4.832.107,3.506,4.675,4.2,7.968,4.782,4.675.8,11.1,1.6,10.839,7.7-.163,5.793-6.164,7.327-10.788,7.327s-9.187-1.747-11.468-5.254l1.916-1.7c2.174,3.135,6.1,4.462,9.608,4.462,3.192,0,8.024-.849,8.181-4.99.107-3.776-4.248-4.518-8.552-5.209-5.1-.849-10.148-1.809-10.2-7.063-.051-5.153,5.1-7.389,10.412-7.333a13.753,13.753,0,0,1,9.771,3.506Z" transform="translate(-209.099 -418.021)" fill="#63b286"/>
        <path id="Path_71" data-name="Path 71" d="M373.215,424.177v7.917h8.923v2.174h-8.923V450.26c0,3.557.742,6.052,4.838,6.052a9.707,9.707,0,0,0,4.034-1.062l.9,2.13a11.505,11.505,0,0,1-4.933,1.326c-5.58,0-7.389-3.293-7.389-8.445V434.269H365.09v-2.174h5.574v-7.653Z" transform="translate(-176.744 -424.177)" fill="#63b286"/>
        <path id="Path_72" data-name="Path 72" d="M398,425.849v26.24h-2.6v-5.574a12.27,12.27,0,0,1-10.726,6,13.492,13.492,0,0,1,0-26.982,11.9,11.9,0,0,1,10.726,6.057v-5.737Zm-24.06,13.12c0,6.585,4.782,11,10.732,11,14.6,0,14.6-21.942,0-21.942A10.5,10.5,0,0,0,373.935,438.969Z" transform="translate(-147.931 -417.932)" fill="#63b286"/>
        <path id="Path_73" data-name="Path 73" d="M382.273,425.983v4.675c2.023-3.613,5.686-5.1,9.35-5.158,7.013,0,11.845,4.3,11.845,11.581v15.143h-2.6V437.137c0-5.95-3.669-9.136-9.35-9.08-5.422.051-9.187,4.141-9.187,9.558v14.609h-2.607v-26.24Z" transform="translate(-109.16 -418.066)" fill="#63b286"/>
        <path id="Path_74" data-name="Path 74" d="M395.092,424.177v7.917h8.928v2.174h-8.928V450.26c0,3.557.747,6.052,4.838,6.052a9.687,9.687,0,0,0,4.04-1.062l.9,2.13a11.551,11.551,0,0,1-4.945,1.326c-5.574,0-7.383-3.293-7.383-8.445V434.269h-5.574v-2.174h5.574v-7.653Z" transform="translate(-75.668 -424.177)" fill="#63b286"/>
      </g>
    </g>
  </g>
</svg>
