<svg xmlns="http://www.w3.org/2000/svg" viewBox="0 0 137.21 276.99"><defs><style>.cls-1{fill:#1d1d1b;}.cls-2,.cls-5{fill:#fff;}.cls-3{fill:none;stroke-width:0.25px;}.cls-3,.cls-5{stroke:#5986c5;stroke-miterlimit:10;}.cls-4{fill:#5986c5;}.cls-5{stroke-width:0.5px;}.cls-6{fill:#303031;}</style></defs><g id="Layer_2" data-name="Layer 2"><g id="Laag_1" data-name="Laag 1"><g id="ifunny"><rect class="cls-1" x="131.43" y="22.19" width="5.75" height="28.44" rx="1" transform="translate(-0.08 0.31) rotate(-0.13)"/><rect class="cls-1" x="2.92" y="0.12" width="132.11" height="276.75" rx="13.32" transform="translate(-0.32 0.16) rotate(-0.13)"/><rect class="cls-2" x="13.17" y="12.71" width="110.89" height="253.5" rx="2.83" transform="translate(-0.32 0.16) rotate(-0.13)"/><rect class="cls-1" x="0.65" y="51.24" width="5.75" height="16.05" rx="1" transform="translate(-0.14 0.01) rotate(-0.13)"/><rect class="cls-1" x="0.02" y="73.6" width="5.75" height="16.05" rx="1" transform="translate(-0.19 0.01) rotate(-0.13)"/></g><rect class="cls-3" x="42.5" y="59.51" width="0.24" height="153.06"/><rect class="cls-4" x="54.27" y="78.37" width="63.78" height="12" rx="4.18"/><rect class="cls-5" x="54.44" y="49.98" width="63.78" height="12" rx="4.18"/><path class="cls-2" d="M69,82.54H67.78V82.1h3v.44H69.53v3.6H69Z"/><path class="cls-2" d="M72.43,86.14l-.05-.37h0a1.09,1.09,0,0,1-.89.44.83.83,0,0,1-.89-.84c0-.7.63-1.08,1.75-1.08v-.06a.6.6,0,0,0-.66-.67,1.38,1.38,0,0,0-.76.22l-.12-.35a1.77,1.77,0,0,1,1-.26c.89,0,1.11.61,1.11,1.19v1.08a3.71,3.71,0,0,0,0,.7Zm-.08-1.48c-.58,0-1.23.09-1.23.65a.47.47,0,0,0,.5.51.72.72,0,0,0,.7-.49.47.47,0,0,0,0-.17Z"/><path class="cls-2" d="M74.23,84.57h0l.25-.33.85-1H76l-1.12,1.19,1.28,1.71H75.5l-1-1.39-.27.3v1.09h-.52V81.88h.52Z"/><path class="cls-2" d="M76.82,84.78a.93.93,0,0,0,1,1,1.83,1.83,0,0,0,.8-.15l.09.38a2.43,2.43,0,0,1-1,.18,1.34,1.34,0,0,1-1.42-1.46,1.41,1.41,0,0,1,1.36-1.57,1.23,1.23,0,0,1,1.2,1.37c0,.11,0,.19,0,.24Zm1.55-.37a.76.76,0,0,0-.74-.86.87.87,0,0,0-.8.86Z"/><path class="cls-2" d="M82.41,86.14l0-.37h0a1.07,1.07,0,0,1-.89.44.82.82,0,0,1-.88-.84c0-.7.62-1.08,1.74-1.08v-.06a.6.6,0,0,0-.66-.67,1.35,1.35,0,0,0-.75.22l-.12-.35a1.72,1.72,0,0,1,.95-.26c.89,0,1.1.61,1.1,1.19v1.08a3.71,3.71,0,0,0,0,.7Zm-.08-1.48c-.57,0-1.23.09-1.23.65a.47.47,0,0,0,.5.51.71.71,0,0,0,.7-.49.47.47,0,0,0,0-.17Z"/><path class="cls-2" d="M84.89,85.6a1.45,1.45,0,0,0,.7.21c.38,0,.56-.19.56-.43s-.15-.39-.54-.54-.76-.47-.76-.82a.89.89,0,0,1,1-.85,1.51,1.51,0,0,1,.71.18l-.13.38a1.13,1.13,0,0,0-.59-.16c-.32,0-.49.18-.49.39s.17.35.55.49.76.45.76.88-.39.87-1.08.87a1.68,1.68,0,0,1-.82-.2Z"/><path class="cls-2" d="M87.34,81.88h.53v1.81h0a1,1,0,0,1,.38-.37,1.09,1.09,0,0,1,.54-.15c.39,0,1,.24,1,1.24v1.73h-.52V84.47c0-.47-.18-.86-.68-.86a.74.74,0,0,0-.7.53.62.62,0,0,0,0,.25v1.75h-.53Z"/><path class="cls-2" d="M93.3,84.66a1.43,1.43,0,0,1-1.45,1.55,1.39,1.39,0,0,1-1.39-1.5,1.42,1.42,0,0,1,1.44-1.54A1.37,1.37,0,0,1,93.3,84.66Zm-2.3,0c0,.64.36,1.12.88,1.12s.88-.47.88-1.13c0-.49-.25-1.11-.87-1.11S91,84.14,91,84.69Z"/><path class="cls-2" d="M94.13,83.24l.39,1.47c.08.33.16.63.21.93h0c.07-.3.16-.61.26-.92l.47-1.48h.45l.45,1.45c.1.35.19.65.25,1h0c0-.3.13-.6.22-1l.42-1.45h.52l-.94,2.9h-.48L96,84.75a9.46,9.46,0,0,1-.26-1h0a8.37,8.37,0,0,1-.26,1L95,86.14h-.48l-.88-2.9Z"/><path class="cls-2" d="M98.57,84.78a.93.93,0,0,0,1,1,1.8,1.8,0,0,0,.8-.15l.09.38a2.37,2.37,0,0,1-1,.18,1.35,1.35,0,0,1-1.43-1.46,1.41,1.41,0,0,1,1.36-1.57,1.23,1.23,0,0,1,1.2,1.37,1.25,1.25,0,0,1,0,.24Zm1.55-.37a.75.75,0,0,0-.73-.86.88.88,0,0,0-.81.86Z"/><path class="cls-2" d="M101.29,84.14c0-.34,0-.63,0-.9h.46l0,.57h0a.86.86,0,0,1,.8-.64l.15,0v.5a.5.5,0,0,0-.18,0,.74.74,0,0,0-.71.68,1.66,1.66,0,0,0,0,.24v1.55h-.52Z"/><path class="cls-4" d="M65.23,53.76a5,5,0,0,1,1-.08A1.71,1.71,0,0,1,67.3,54a.86.86,0,0,1,.33.72,1,1,0,0,1-.68.88h0a1.05,1.05,0,0,1,.83,1,1.1,1.1,0,0,1-.34.81,2,2,0,0,1-1.4.38,6.88,6.88,0,0,1-.81,0Zm.52,1.66h.48c.55,0,.87-.29.87-.68s-.36-.66-.88-.66a2.15,2.15,0,0,0-.47,0Zm0,1.93a2.59,2.59,0,0,0,.44,0c.54,0,1-.2,1-.79s-.47-.78-1-.78h-.44Z"/><path class="cls-4" d="M68.47,55.75c0-.34,0-.63,0-.9h.47v.57h0a.87.87,0,0,1,.8-.64l.15,0v.5a.5.5,0,0,0-.18,0A.74.74,0,0,0,69,56a1.66,1.66,0,0,0,0,.24v1.55h-.52Z"/><path class="cls-4" d="M72.86,57c0,.3,0,.56,0,.79h-.47l0-.47h0a1.1,1.1,0,0,1-1,.54c-.45,0-1-.26-1-1.28V54.85h.53v1.6c0,.56.17.93.65.93a.76.76,0,0,0,.69-.48.81.81,0,0,0,0-.27V54.85h.53Z"/><path class="cls-4" d="M73.66,57.21a1.41,1.41,0,0,0,.7.21c.38,0,.56-.19.56-.43s-.15-.39-.54-.54-.77-.47-.77-.82a.9.9,0,0,1,1-.85,1.51,1.51,0,0,1,.71.18l-.13.38a1.2,1.2,0,0,0-.6-.16c-.31,0-.48.18-.48.39s.17.35.55.49.76.45.76.88-.39.87-1.08.87a1.65,1.65,0,0,1-.82-.2Z"/><path class="cls-4" d="M76.11,53.49h.53V55.3h0a1,1,0,0,1,.38-.37,1.06,1.06,0,0,1,.54-.15c.39,0,1,.24,1,1.24v1.73h-.53V56.08c0-.46-.17-.86-.67-.86a.77.77,0,0,0-.71.53.64.64,0,0,0,0,.25v1.75h-.53Z"/><path class="cls-4" d="M80.9,54.85l.64,1.71c.07.19.14.42.19.6h0c.05-.18.11-.4.18-.61l.58-1.7h.56l-.79,2.07a4.42,4.42,0,0,1-1,1.81,1.38,1.38,0,0,1-.65.34l-.13-.44a1.21,1.21,0,0,0,.46-.26,1.48,1.48,0,0,0,.45-.58.58.58,0,0,0,0-.13.38.38,0,0,0,0-.14l-1.07-2.67Z"/><path class="cls-4" d="M86.11,56.27a1.43,1.43,0,0,1-1.45,1.55,1.38,1.38,0,0,1-1.39-1.5,1.41,1.41,0,0,1,1.44-1.54A1.38,1.38,0,0,1,86.11,56.27Zm-2.31,0c0,.64.37,1.12.88,1.12s.89-.47.89-1.13c0-.49-.25-1.11-.87-1.11S83.8,55.75,83.8,56.3Z"/><path class="cls-4" d="M89.2,57c0,.3,0,.56,0,.79h-.47l0-.47h0a1.11,1.11,0,0,1-1,.54c-.46,0-1-.26-1-1.28V54.85h.53v1.6c0,.56.17.93.65.93a.78.78,0,0,0,.7-.48.8.8,0,0,0,0-.27V54.85h.53Z"/><path class="cls-4" d="M90.08,55.75c0-.34,0-.63,0-.9h.47v.57h0a.87.87,0,0,1,.8-.64l.15,0v.5a.5.5,0,0,0-.18,0,.75.75,0,0,0-.71.68,1.66,1.66,0,0,0,0,.24v1.55h-.52Z"/><path class="cls-4" d="M94,54v.84h.75v.4H94v1.56c0,.36.1.57.39.57a1.11,1.11,0,0,0,.31,0l0,.4a1.3,1.3,0,0,1-.46.07.73.73,0,0,1-.57-.22,1.1,1.1,0,0,1-.21-.76V55.25H93v-.4h.45v-.7Z"/><path class="cls-4" d="M95.56,56.39a.92.92,0,0,0,1,1,1.77,1.77,0,0,0,.8-.15l.09.38a2.37,2.37,0,0,1-1,.18,1.35,1.35,0,0,1-1.43-1.46,1.41,1.41,0,0,1,1.36-1.57,1.23,1.23,0,0,1,1.2,1.37,1.25,1.25,0,0,1,0,.24ZM97.1,56a.75.75,0,0,0-.73-.86.88.88,0,0,0-.81.86Z"/><path class="cls-4" d="M98.56,56.39a.93.93,0,0,0,1,1,1.83,1.83,0,0,0,.8-.15l.09.38a2.41,2.41,0,0,1-1,.18,1.35,1.35,0,0,1-1.43-1.46,1.41,1.41,0,0,1,1.36-1.57,1.23,1.23,0,0,1,1.2,1.37,1.25,1.25,0,0,1,0,.24Zm1.55-.37a.75.75,0,0,0-.73-.86.87.87,0,0,0-.81.86Z"/><path class="cls-4" d="M101.91,54v.84h.76v.4h-.76v1.56c0,.36.1.57.39.57a1.11,1.11,0,0,0,.31,0l0,.4a1.3,1.3,0,0,1-.46.07.73.73,0,0,1-.57-.22,1.1,1.1,0,0,1-.21-.76V55.25h-.45v-.4h.45v-.7Z"/><path class="cls-4" d="M103.26,53.49h.53V55.3h0a1,1,0,0,1,.38-.37,1.06,1.06,0,0,1,.54-.15c.39,0,1,.24,1,1.24v1.73h-.53V56.08c0-.46-.17-.86-.67-.86a.77.77,0,0,0-.71.53.64.64,0,0,0,0,.25v1.75h-.53Z"/><rect class="cls-4" x="54.29" y="97.63" width="63.78" height="12" rx="4.18"/><path class="cls-2" d="M69.3,105.27a2.76,2.76,0,0,1-1.07.19,1.89,1.89,0,0,1-2-2,2,2,0,0,1,2.11-2.12,2.15,2.15,0,0,1,1,.18l-.12.43a1.85,1.85,0,0,0-.82-.17,1.51,1.51,0,0,0-1.58,1.67A1.47,1.47,0,0,0,68.34,105a2,2,0,0,0,.85-.17Z"/><path class="cls-2" d="M72.49,103.92a1.42,1.42,0,0,1-1.44,1.55,1.38,1.38,0,0,1-1.39-1.5,1.41,1.41,0,0,1,1.44-1.54A1.37,1.37,0,0,1,72.49,103.92Zm-2.3,0c0,.64.37,1.12.88,1.12s.88-.47.88-1.13c0-.49-.24-1.11-.87-1.11S70.19,103.4,70.19,104Z"/><path class="cls-2" d="M73.16,103.28c0-.3,0-.54,0-.78h.46l0,.47h0a1,1,0,0,1,.91-.54.85.85,0,0,1,.82.58h0a1.17,1.17,0,0,1,.32-.37,1,1,0,0,1,.64-.21c.39,0,1,.25,1,1.26v1.71h-.52v-1.64c0-.56-.2-.9-.63-.9a.68.68,0,0,0-.62.48.73.73,0,0,0,0,.27v1.79H75v-1.74c0-.46-.2-.8-.61-.8a.72.72,0,0,0-.65.53.75.75,0,0,0,0,.26v1.75h-.52Z"/><path class="cls-2" d="M78.14,105.4c0-.2,0-.49,0-.75v-3.51h.52V103h0a1.08,1.08,0,0,1,1-.54,1.3,1.3,0,0,1,1.22,1.48,1.38,1.38,0,0,1-1.3,1.56,1,1,0,0,1-1-.55h0l0,.48Zm.55-1.16a1.23,1.23,0,0,0,0,.19.82.82,0,0,0,.79.62c.56,0,.88-.45.88-1.12s-.3-1.08-.86-1.08a.84.84,0,0,0-.8.65,1.18,1.18,0,0,0,0,.21Z"/><path class="cls-2" d="M83,102.5l.64,1.71c.07.19.14.42.19.6h0c.05-.18.11-.4.18-.61l.58-1.7h.56l-.79,2.07a4.42,4.42,0,0,1-1,1.81,1.38,1.38,0,0,1-.65.34l-.13-.44a1.21,1.21,0,0,0,.46-.26,1.48,1.48,0,0,0,.45-.58.58.58,0,0,0,0-.13.38.38,0,0,0,0-.14l-1.07-2.67Z"/><path class="cls-2" d="M88.24,103.92a1.42,1.42,0,0,1-1.44,1.55,1.38,1.38,0,0,1-1.39-1.5,1.41,1.41,0,0,1,1.44-1.54A1.37,1.37,0,0,1,88.24,103.92Zm-2.3,0c0,.64.37,1.12.88,1.12s.88-.47.88-1.13c0-.49-.24-1.11-.87-1.11S85.94,103.4,85.94,104Z"/><path class="cls-2" d="M91.34,104.61c0,.3,0,.56,0,.79H90.9l0-.47h0a1.08,1.08,0,0,1-1,.54c-.45,0-1-.26-1-1.28V102.5h.53v1.6c0,.56.17.93.65.93a.76.76,0,0,0,.69-.48.81.81,0,0,0,0-.27V102.5h.53Z"/><path class="cls-2" d="M92.22,103.4c0-.34,0-.63,0-.9h.47v.57h0a.87.87,0,0,1,.8-.64l.15,0v.5a.5.5,0,0,0-.18,0,.74.74,0,0,0-.71.68,1.66,1.66,0,0,0,0,.24v1.55h-.52Z"/><path class="cls-2" d="M95.45,101.14H96V103h0a1,1,0,0,1,.38-.37,1.06,1.06,0,0,1,.54-.15c.39,0,1,.24,1,1.24v1.73h-.53v-1.67c0-.47-.17-.86-.67-.86a.77.77,0,0,0-.71.53.64.64,0,0,0,0,.25v1.75h-.53Z"/><path class="cls-2" d="M100.39,105.4l0-.37h0a1.09,1.09,0,0,1-.89.44.83.83,0,0,1-.89-.84c0-.7.63-1.08,1.75-1.08v-.06a.6.6,0,0,0-.66-.67,1.5,1.5,0,0,0-.76.22l-.12-.35a1.78,1.78,0,0,1,1-.26c.88,0,1.1.61,1.1,1.19v1.08a3.71,3.71,0,0,0,.05.7Zm-.08-1.48c-.58,0-1.23.09-1.23.65a.47.47,0,0,0,.5.51.71.71,0,0,0,.7-.49.47.47,0,0,0,0-.17Z"/><path class="cls-2" d="M102.26,101.68a.33.33,0,1,1-.32-.33A.32.32,0,0,1,102.26,101.68Zm-.59,3.72v-2.9h.53v2.9Z"/><path class="cls-2" d="M103.08,103.4c0-.34,0-.63,0-.9h.46l0,.57h0a.87.87,0,0,1,.8-.64l.15,0v.5a.5.5,0,0,0-.18,0,.74.74,0,0,0-.71.68,1.66,1.66,0,0,0,0,.24v1.55h-.52Z"/><rect class="cls-4" x="54.33" y="117.85" width="63.78" height="12" rx="4.18"/><path class="cls-2" d="M72.09,123.85c0-.57-.06-1.24-.06-1.75h0c-.13.48-.3,1-.51,1.54l-.71,2H70.4l-.66-1.93c-.19-.57-.35-1.09-.47-1.57h0c0,.51,0,1.18-.08,1.79l-.1,1.73h-.5l.28-4h.67l.69,2c.16.49.3.94.4,1.36h0c.1-.41.25-.85.43-1.36l.72-2h.66l.25,4h-.51Z"/><path class="cls-2" d="M75.14,125.62l0-.36h0a1.1,1.1,0,0,1-.89.43.83.83,0,0,1-.89-.83c0-.71.62-1.09,1.75-1.08v-.06a.61.61,0,0,0-.66-.68,1.47,1.47,0,0,0-.76.22l-.12-.35a1.86,1.86,0,0,1,.95-.25c.89,0,1.11.6,1.11,1.18v1.09a3.6,3.6,0,0,0,.05.69Zm-.08-1.48c-.58,0-1.23.09-1.23.66a.47.47,0,0,0,.5.5.73.73,0,0,0,.7-.49.45.45,0,0,0,0-.16Z"/><path class="cls-2" d="M76.94,124.05h0l.26-.33.85-1h.64l-1.12,1.19,1.27,1.71h-.64l-1-1.39-.27.3v1.09h-.52v-4.25h.52Z"/><path class="cls-2" d="M79.53,124.27a.93.93,0,0,0,1,1,2,2,0,0,0,.81-.15l.09.37a2.3,2.3,0,0,1-1,.18A1.35,1.35,0,0,1,79,124.22a1.41,1.41,0,0,1,1.37-1.56A1.22,1.22,0,0,1,81.58,124c0,.11,0,.19,0,.25Zm1.55-.38a.76.76,0,0,0-.74-.86.88.88,0,0,0-.81.86Z"/><path class="cls-2" d="M84.15,121.89v.83h.75v.4h-.75v1.57c0,.36.1.56.39.56a1.89,1.89,0,0,0,.31,0l0,.39a1.3,1.3,0,0,1-.46.07.7.7,0,0,1-.57-.22,1.05,1.05,0,0,1-.21-.75v-1.59h-.45v-.4h.45V122Z"/><path class="cls-2" d="M85.5,121.37H86v1.81h0a.93.93,0,0,1,.38-.38,1.17,1.17,0,0,1,.54-.14c.39,0,1,.23,1,1.24v1.72h-.53V124c0-.47-.17-.87-.67-.87a.77.77,0,0,0-.71.53.64.64,0,0,0,0,.25v1.75H85.5Z"/><path class="cls-2" d="M89.12,124.27a.94.94,0,0,0,1,1,2,2,0,0,0,.8-.15l.09.37a2.21,2.21,0,0,1-1,.18,1.34,1.34,0,0,1-1.43-1.46A1.4,1.4,0,0,1,90,122.66a1.22,1.22,0,0,1,1.2,1.36,1.47,1.47,0,0,1,0,.25Zm1.55-.38a.75.75,0,0,0-.73-.86.87.87,0,0,0-.81.86Z"/><path class="cls-2" d="M93.08,125.62c0-.19,0-.49,0-.75v-3.5h.52v1.82h0a1.09,1.09,0,0,1,1-.53c.72,0,1.23.59,1.22,1.48a1.38,1.38,0,0,1-1.3,1.55,1,1,0,0,1-1-.55h0l0,.48Zm.55-1.16a1.11,1.11,0,0,0,0,.19.81.81,0,0,0,.79.62c.56,0,.88-.45.88-1.12s-.3-1.08-.86-1.08a.84.84,0,0,0-.8.65,1.17,1.17,0,0,0,0,.22Z"/><path class="cls-2" d="M96.81,124.27a.94.94,0,0,0,1,1,1.92,1.92,0,0,0,.8-.15l.09.37a2.21,2.21,0,0,1-1,.18,1.34,1.34,0,0,1-1.43-1.46,1.4,1.4,0,0,1,1.36-1.56,1.22,1.22,0,0,1,1.2,1.36,1.47,1.47,0,0,1,0,.25Zm1.55-.38a.75.75,0,0,0-.73-.86.88.88,0,0,0-.81.86Z"/><path class="cls-2" d="M102,121.37v3.5c0,.26,0,.56,0,.75h-.48l0-.5h0a1.1,1.1,0,0,1-1,.57,1.32,1.32,0,0,1-1.24-1.48,1.38,1.38,0,0,1,1.3-1.55,1,1,0,0,1,.87.44h0v-1.73Zm-.53,2.53a.86.86,0,0,0,0-.22.77.77,0,0,0-.76-.61c-.55,0-.87.48-.87,1.12s.29,1.07.86,1.07a.81.81,0,0,0,.79-.85Z"/><rect class="cls-4" x="54.48" y="147.68" width="63.78" height="12" rx="4.18"/><path class="cls-2" d="M63.62,155.45l-1.32-4h.56l.63,2c.18.55.33,1,.44,1.51h0c.11-.47.28-1,.46-1.5l.68-2h.56l-1.44,4Z"/><path class="cls-2" d="M66.16,154.1a.92.92,0,0,0,1,1A1.85,1.85,0,0,0,68,155l.09.38a2.3,2.3,0,0,1-1,.18,1.35,1.35,0,0,1-1.43-1.46A1.41,1.41,0,0,1,67,152.48a1.23,1.23,0,0,1,1.2,1.37c0,.11,0,.19,0,.25Zm1.54-.38a.74.74,0,0,0-.73-.86.88.88,0,0,0-.81.86Z"/><path class="cls-2" d="M68.87,153.33c0-.3,0-.54,0-.78h.46l0,.48h0a1,1,0,0,1,1-.55c.41,0,1,.24,1,1.24v1.73h-.53v-1.67c0-.47-.17-.86-.67-.86a.76.76,0,0,0-.71.54,1,1,0,0,0,0,.25v1.74h-.53Z"/><path class="cls-2" d="M72.81,151.72v.83h.76v.4h-.76v1.57c0,.36.1.56.4.56a1,1,0,0,0,.3,0l0,.4a1.37,1.37,0,0,1-.47.07.74.74,0,0,1-.57-.22,1.08,1.08,0,0,1-.2-.76V153h-.45v-.4h.45v-.7Z"/><path class="cls-2" d="M74.75,151.73a.33.33,0,1,1-.32-.33A.32.32,0,0,1,74.75,151.73Zm-.59,3.72v-2.9h.53v2.9Z"/><path class="cls-2" d="M75.57,151.19h.52v4.26h-.52Z"/><path class="cls-2" d="M78.59,155.45l0-.36h0a1.09,1.09,0,0,1-.89.43.83.83,0,0,1-.89-.84c0-.7.63-1.08,1.75-1.08v-.06a.6.6,0,0,0-.66-.67,1.5,1.5,0,0,0-.76.22l-.12-.35a1.87,1.87,0,0,1,1-.26c.89,0,1.1.61,1.1,1.19v1.09a3.67,3.67,0,0,0,0,.69ZM78.51,154c-.57,0-1.23.09-1.23.65a.47.47,0,0,0,.5.51.71.71,0,0,0,.7-.49.47.47,0,0,0,0-.17Z"/><path class="cls-2" d="M80.49,151.72v.83h.75v.4h-.75v1.57c0,.36.1.56.39.56a1.11,1.11,0,0,0,.31,0l0,.4a1.33,1.33,0,0,1-.47.07.76.76,0,0,1-.57-.22,1.08,1.08,0,0,1-.2-.76V153h-.45v-.4H80v-.7Z"/><path class="cls-2" d="M82.09,154.1a.93.93,0,0,0,1,1,1.77,1.77,0,0,0,.8-.15l.09.38a2.21,2.21,0,0,1-1,.18,1.35,1.35,0,0,1-1.43-1.46A1.41,1.41,0,0,1,83,152.48a1.23,1.23,0,0,1,1.2,1.37,1.47,1.47,0,0,1,0,.25Zm1.55-.38a.75.75,0,0,0-.73-.86.88.88,0,0,0-.81.86Z"/><path class="cls-2" d="M86.71,151.72v.83h.76v.4h-.76v1.57c0,.36.11.56.4.56a1.11,1.11,0,0,0,.31,0l0,.4a1.37,1.37,0,0,1-.47.07.74.74,0,0,1-.57-.22,1.08,1.08,0,0,1-.2-.76V153h-.45v-.4h.45v-.7Z"/><path class="cls-2" d="M88.06,151.19h.53V153h0a1,1,0,0,1,.38-.37,1.09,1.09,0,0,1,.54-.15c.39,0,1,.24,1,1.24v1.73H90v-1.67c0-.46-.18-.86-.68-.86a.74.74,0,0,0-.7.53.62.62,0,0,0,0,.25v1.75h-.53Z"/><path class="cls-2" d="M91.69,154.1a.92.92,0,0,0,1,1,1.85,1.85,0,0,0,.81-.15l.09.38a2.3,2.3,0,0,1-1,.18,1.35,1.35,0,0,1-1.43-1.46,1.41,1.41,0,0,1,1.36-1.57,1.23,1.23,0,0,1,1.2,1.37c0,.11,0,.19,0,.25Zm1.54-.38a.74.74,0,0,0-.73-.86.88.88,0,0,0-.81.86Z"/><path class="cls-2" d="M95.67,153.45c0-.34,0-.63,0-.9h.46l0,.57h0a.87.87,0,0,1,.8-.64l.15,0v.5l-.18,0a.73.73,0,0,0-.7.68,1.57,1.57,0,0,0,0,.24v1.55h-.52Z"/><path class="cls-2" d="M100.2,154a1.42,1.42,0,0,1-1.45,1.54,1.39,1.39,0,0,1-1.39-1.5,1.42,1.42,0,0,1,1.44-1.54A1.38,1.38,0,0,1,100.2,154Zm-2.3,0c0,.63.36,1.11.88,1.11s.88-.47.88-1.13c0-.49-.25-1.11-.87-1.11S97.9,153.45,97.9,154Z"/><path class="cls-2" d="M103.49,154a1.42,1.42,0,0,1-1.44,1.54,1.38,1.38,0,0,1-1.39-1.5,1.41,1.41,0,0,1,1.44-1.54A1.38,1.38,0,0,1,103.49,154Zm-2.3,0c0,.63.37,1.11.88,1.11s.88-.47.88-1.13c0-.49-.24-1.11-.87-1.11S101.19,153.45,101.19,154Z"/><path class="cls-2" d="M104.16,153.33c0-.3,0-.54,0-.78h.46l0,.47h0a1,1,0,0,1,.91-.54.85.85,0,0,1,.82.58h0a1.17,1.17,0,0,1,.32-.37,1,1,0,0,1,.64-.21c.39,0,1,.26,1,1.26v1.71h-.51v-1.64c0-.56-.2-.9-.63-.9a.69.69,0,0,0-.62.48.76.76,0,0,0-.05.27v1.79H106v-1.74c0-.46-.21-.8-.61-.8a.72.72,0,0,0-.65.53.75.75,0,0,0,0,.26v1.75h-.52Z"/><rect class="cls-4" x="54.49" y="168.6" width="63.78" height="12" rx="4.18"/><path class="cls-2" d="M62.26,172.32v2.4c0,.9.4,1.28.94,1.28s1-.39,1-1.28v-2.4h.53v2.36c0,1.24-.66,1.75-1.53,1.75s-1.45-.47-1.45-1.73v-2.38Z"/><path class="cls-2" d="M65.49,175.82a1.32,1.32,0,0,0,.7.21c.38,0,.56-.19.56-.43s-.15-.39-.54-.53-.77-.47-.77-.82a.89.89,0,0,1,1-.85,1.44,1.44,0,0,1,.72.18L67,174a1.12,1.12,0,0,0-.59-.17c-.31,0-.49.18-.49.4s.18.35.56.49.76.44.76.87-.4.87-1.09.87a1.62,1.62,0,0,1-.81-.19Z"/><path class="cls-2" d="M68.23,175a.94.94,0,0,0,1,1,2,2,0,0,0,.8-.15l.09.37a2.26,2.26,0,0,1-1,.18A1.34,1.34,0,0,1,67.73,175a1.4,1.4,0,0,1,1.36-1.56,1.22,1.22,0,0,1,1.2,1.36,1.38,1.38,0,0,1,0,.25Zm1.55-.38a.76.76,0,0,0-.73-.86.87.87,0,0,0-.81.86Z"/><path class="cls-2" d="M72.85,172.63v.83h.76v.4h-.76v1.57c0,.36.1.56.4.56a1.74,1.74,0,0,0,.3,0l0,.39a1.41,1.41,0,0,1-.47.07.7.7,0,0,1-.57-.22,1.05,1.05,0,0,1-.21-.75v-1.59h-.44v-.4h.44v-.69Z"/><path class="cls-2" d="M74.2,172.11h.53v1.81h0a1,1,0,0,1,.38-.37,1.06,1.06,0,0,1,.54-.15c.39,0,1,.24,1,1.24v1.72h-.53V174.7c0-.47-.17-.87-.67-.87a.77.77,0,0,0-.71.53.64.64,0,0,0,0,.25v1.75H74.2Z"/><path class="cls-2" d="M77.82,175a.94.94,0,0,0,1,1,1.92,1.92,0,0,0,.8-.15l.09.37a2.21,2.21,0,0,1-1,.18A1.34,1.34,0,0,1,77.32,175a1.41,1.41,0,0,1,1.36-1.56,1.22,1.22,0,0,1,1.2,1.36,1.38,1.38,0,0,1,0,.25Zm1.55-.38a.75.75,0,0,0-.73-.86.88.88,0,0,0-.81.86Z"/><path class="cls-2" d="M84.31,172.11v3.51c0,.25,0,.55,0,.74h-.47l0-.5h0a1.08,1.08,0,0,1-1,.57A1.32,1.32,0,0,1,81.6,175a1.38,1.38,0,0,1,1.3-1.56,1,1,0,0,1,.87.44h0v-1.73Zm-.52,2.53a.89.89,0,0,0,0-.22.77.77,0,0,0-.76-.61c-.54,0-.87.48-.87,1.12S82.42,176,83,176a.78.78,0,0,0,.77-.62.91.91,0,0,0,0-.23Z"/><path class="cls-2" d="M85.78,172.65a.33.33,0,0,1-.65,0,.33.33,0,1,1,.65,0Zm-.59,3.71v-2.9h.53v2.9Z"/><path class="cls-2" d="M86.52,175.82a1.35,1.35,0,0,0,.7.21c.38,0,.56-.19.56-.43s-.15-.39-.54-.53-.76-.47-.76-.82a.89.89,0,0,1,1-.85,1.4,1.4,0,0,1,.71.18l-.13.38a1.12,1.12,0,0,0-.59-.17c-.32,0-.49.18-.49.4s.17.35.55.49.76.44.76.87-.39.87-1.08.87a1.68,1.68,0,0,1-.82-.19Z"/><path class="cls-2" d="M89,172.11h.53v1.81h0a1,1,0,0,1,.38-.37,1.09,1.09,0,0,1,.54-.15c.39,0,1,.24,1,1.24v1.72h-.52V174.7c0-.47-.18-.87-.68-.87a.74.74,0,0,0-.7.53.62.62,0,0,0,0,.25v1.75H89Z"/><path class="cls-2" d="M92.43,173.46l.39,1.48c.08.32.16.62.21.92h0c.07-.29.16-.6.26-.92l.47-1.48h.45l.45,1.45c.1.35.19.66.26,1h0c0-.29.13-.6.22-.94l.42-1.46h.52l-.94,2.9h-.48L94.25,175A9.46,9.46,0,0,1,94,174h0a9.65,9.65,0,0,1-.26,1l-.47,1.37h-.48l-.87-2.9Z"/><path class="cls-2" d="M98.22,176.36l0-.36h0a1.06,1.06,0,0,1-.88.43.83.83,0,0,1-.89-.83c0-.7.62-1.09,1.74-1.08v-.06a.59.59,0,0,0-.66-.67,1.43,1.43,0,0,0-.75.21l-.12-.35a1.86,1.86,0,0,1,1-.25c.89,0,1.11.6,1.11,1.18v1.09a4.75,4.75,0,0,0,0,.69Zm-.07-1.48c-.58,0-1.23.09-1.23.66a.46.46,0,0,0,.49.5.74.74,0,0,0,.71-.49.9.9,0,0,0,0-.16Z"/><path class="cls-2" d="M99.44,175.82a1.28,1.28,0,0,0,.69.21c.39,0,.57-.19.57-.43s-.15-.39-.54-.53-.77-.47-.77-.82a.89.89,0,0,1,1-.85,1.4,1.4,0,0,1,.71.18L101,174a1.12,1.12,0,0,0-.59-.17c-.31,0-.49.18-.49.4s.18.35.55.49.77.44.77.87-.4.87-1.09.87a1.68,1.68,0,0,1-.82-.19Z"/><path class="cls-2" d="M101.88,172.11h.53v1.81h0a1,1,0,0,1,.38-.37,1.09,1.09,0,0,1,.54-.15c.39,0,1,.24,1,1.24v1.72h-.52V174.7c0-.47-.18-.87-.67-.87a.75.75,0,0,0-.71.53.62.62,0,0,0,0,.25v1.75h-.53Z"/><path class="cls-2" d="M105.51,175a.93.93,0,0,0,1,1,2,2,0,0,0,.81-.15l.09.37a2.3,2.3,0,0,1-1,.18A1.35,1.35,0,0,1,105,175a1.41,1.41,0,0,1,1.37-1.56,1.22,1.22,0,0,1,1.19,1.36c0,.11,0,.2,0,.25Zm1.55-.38a.76.76,0,0,0-.74-.86c-.53,0-.76.5-.81.86Z"/><path class="cls-2" d="M108.22,174.37c0-.34,0-.64,0-.91h.46l0,.57h0a.86.86,0,0,1,.8-.63h.15v.5l-.18,0a.74.74,0,0,0-.7.68,1,1,0,0,0,0,.25v1.54h-.52Z"/><circle class="cls-4" cx="42.75" cy="174.42" r="2.94"/><polygon class="cls-2" points="42.41 176.3 40.5 174.54 41.16 173.82 42.3 174.87 44.56 172.12 45.32 172.74 42.41 176.3"/><circle class="cls-4" cx="42.59" cy="153.89" r="2.94"/><polygon class="cls-2" points="42.24 155.77 40.34 154.02 41 153.3 42.14 154.35 44.4 151.59 45.16 152.21 42.24 155.77"/><circle class="cls-4" cx="42.5" cy="124.67" r="2.94"/><polygon class="cls-2" points="42.16 126.55 40.25 124.79 40.91 124.07 42.05 125.13 44.31 122.37 45.07 122.99 42.16 126.55"/><circle class="cls-4" cx="42.63" cy="103.73" r="2.94"/><polygon class="cls-2" points="42.28 105.61 40.38 103.85 41.04 103.13 42.18 104.19 44.44 101.43 45.2 102.05 42.28 105.61"/><circle class="cls-4" cx="42.49" cy="84.18" r="2.94"/><polygon class="cls-2" points="42.15 86.06 40.24 84.3 40.91 83.58 42.05 84.64 44.31 81.88 45.06 82.5 42.15 86.06"/><circle class="cls-3" cx="42.71" cy="56.56" r="2.94"/><polygon class="cls-3" points="42.37 58.44 40.46 56.69 41.12 55.97 42.27 57.02 44.52 54.26 45.28 54.88 42.37 58.44"/><path class="cls-6" d="M21.48,33.51H20v-.38H23.4v.38H21.93v3.81h-.45Z"/><path class="cls-6" d="M23.37,35.75A1.61,1.61,0,1,1,25,37.35,1.55,1.55,0,0,1,23.37,35.75Zm2.78,0A1.17,1.17,0,1,0,25,37,1.15,1.15,0,0,0,26.15,35.75Z"/><path class="cls-6" d="M30.33,32.87v4.45h-.41V36.7a1.34,1.34,0,0,1-1.21.65,1.6,1.6,0,0,1,0-3.2,1.38,1.38,0,0,1,1.2.62v-1.9Zm-.42,2.88A1.17,1.17,0,1,0,28.74,37,1.15,1.15,0,0,0,29.91,35.75Z"/><path class="cls-6" d="M33.9,35.37v2h-.41v-.49a1.16,1.16,0,0,1-1.08.52c-.71,0-1.15-.37-1.15-.91s.31-.9,1.21-.9h1v-.19c0-.54-.31-.83-.9-.83a1.6,1.6,0,0,0-1,.37l-.19-.32a2,2,0,0,1,1.28-.42A1.12,1.12,0,0,1,33.9,35.37Zm-.42,1v-.52h-1c-.62,0-.81.24-.81.56s.29.6.79.6A1,1,0,0,0,33.48,36.38Z"/><path class="cls-6" d="M37.65,34.17,36.08,37.7c-.27.62-.6.82-1,.82a1.08,1.08,0,0,1-.77-.29l.2-.32a.75.75,0,0,0,.57.24c.28,0,.48-.13.66-.53l.13-.3-1.41-3.15h.45L36,36.85l1.19-2.68Z"/><path class="cls-1" d="M17.75,53.6c0-1.34.7-2.14,1.67-2.14s1.68.8,1.68,2.14-.71,2.13-1.68,2.13S17.75,54.93,17.75,53.6Zm2.91,0c0-1.12-.51-1.74-1.24-1.74s-1.23.62-1.23,1.74.5,1.74,1.23,1.74S20.66,54.72,20.66,53.6Z"/><path class="cls-1" d="M25,54.53c0,.74-.63,1.2-1.64,1.2s-1.61-.46-1.61-1.2a1,1,0,0,1,.81-1,.93.93,0,0,1-.66-.92c0-.68.58-1.11,1.46-1.11s1.49.43,1.49,1.11a.94.94,0,0,1-.68.92A1.07,1.07,0,0,1,25,54.53Zm-.45,0c0-.52-.44-.84-1.19-.84s-1.18.32-1.18.84.44.85,1.18.85S24.5,55,24.5,54.52Zm-1.19-1.18c.66,0,1.05-.29,1.05-.75s-.42-.76-1.05-.76-1,.29-1,.75S22.66,53.34,23.31,53.34Z"/><path class="cls-1" d="M25.55,52.84a.32.32,0,0,1,.32-.32.33.33,0,0,1,0,.65A.32.32,0,0,1,25.55,52.84Zm0,2.56a.32.32,0,0,1,.32-.33.32.32,0,0,1,.32.33.32.32,0,0,1-.32.33A.33.33,0,0,1,25.55,55.4Z"/><path class="cls-1" d="M26.82,53.6c0-1.34.7-2.14,1.67-2.14s1.68.8,1.68,2.14-.71,2.13-1.68,2.13S26.82,54.93,26.82,53.6Zm2.91,0c0-1.12-.51-1.74-1.24-1.74s-1.23.62-1.23,1.74.5,1.74,1.23,1.74S29.73,54.72,29.73,53.6Z"/><path class="cls-1" d="M30.79,53.6c0-1.34.7-2.14,1.67-2.14s1.68.8,1.68,2.14-.7,2.13-1.68,2.13S30.79,54.93,30.79,53.6Zm2.91,0c0-1.12-.5-1.74-1.24-1.74s-1.23.62-1.23,1.74.5,1.74,1.23,1.74S33.7,54.72,33.7,53.6Z"/><path class="cls-1" d="M97.38,35.14c0-1.34.7-2.14,1.67-2.14s1.68.8,1.68,2.14-.71,2.13-1.68,2.13S97.38,36.47,97.38,35.14Zm2.91,0c0-1.13-.51-1.74-1.24-1.74s-1.23.61-1.23,1.74.5,1.73,1.23,1.73S100.29,36.26,100.29,35.14Z"/><path class="cls-1" d="M104.58,36.06c0,.75-.63,1.21-1.63,1.21s-1.62-.46-1.62-1.21a1.06,1.06,0,0,1,.81-1,.93.93,0,0,1-.66-.92c0-.68.58-1.11,1.47-1.11s1.48.43,1.48,1.11a.94.94,0,0,1-.67.92A1.07,1.07,0,0,1,104.58,36.06Zm-.45,0c0-.52-.44-.84-1.18-.84s-1.18.32-1.18.84.43.84,1.18.84S104.13,36.58,104.13,36.06ZM103,34.88c.65,0,1-.3,1-.75s-.41-.76-1-.76-1,.28-1,.75S102.29,34.88,103,34.88Z"/><path class="cls-1" d="M105.19,34.38a.31.31,0,0,1,.31-.32.32.32,0,0,1,.33.32.33.33,0,0,1-.33.33A.32.32,0,0,1,105.19,34.38Zm0,2.55a.31.31,0,0,1,.31-.32.33.33,0,1,1,0,.65A.32.32,0,0,1,105.19,36.93Z"/><path class="cls-1" d="M106.45,35.14c0-1.34.7-2.14,1.67-2.14s1.68.8,1.68,2.14-.7,2.13-1.68,2.13S106.45,36.47,106.45,35.14Zm2.91,0c0-1.13-.5-1.74-1.24-1.74s-1.23.61-1.23,1.74.5,1.73,1.23,1.73S109.36,36.26,109.36,35.14Z"/><path class="cls-1" d="M113.14,36c0,.7-.51,1.24-1.52,1.24a2.21,2.21,0,0,1-1.52-.54l.21-.34a1.88,1.88,0,0,0,1.31.48c.69,0,1.08-.32,1.08-.84s-.36-.84-1.14-.84h-.3v-.31l1.17-1.46h-2.15V33H113v.3l-1.19,1.49C112.69,34.88,113.14,35.36,113.14,36Z"/><path class="cls-1" d="M20.65,60.54c0-.89.47-1.43,1.12-1.43s1.12.54,1.12,1.43S22.42,62,21.77,62,20.65,61.43,20.65,60.54Zm1.94,0c0-.75-.33-1.16-.82-1.16s-.82.41-.82,1.16.33,1.16.82,1.16S22.59,61.28,22.59,60.54Z"/><path class="cls-1" d="M25.45,61.16c0,.49-.42.8-1.08.8s-1.08-.31-1.08-.8a.7.7,0,0,1,.54-.69.62.62,0,0,1-.44-.62c0-.45.38-.74,1-.74s1,.29,1,.74a.63.63,0,0,1-.45.62A.7.7,0,0,1,25.45,61.16Zm-.29,0c0-.34-.3-.56-.79-.56s-.79.22-.79.56.29.57.79.57S25.16,61.5,25.16,61.15Zm-.79-.78c.43,0,.69-.2.69-.5s-.27-.51-.69-.51-.7.19-.7.5S23.93,60.37,24.37,60.37Z"/><path class="cls-1" d="M25.86,60a.21.21,0,0,1,.21-.21.22.22,0,1,1,0,.43A.21.21,0,0,1,25.86,60Zm0,1.71a.21.21,0,0,1,.21-.22.22.22,0,0,1,.22.22.22.22,0,0,1-.22.22A.21.21,0,0,1,25.86,61.74Z"/><path class="cls-1" d="M26.7,60.54c0-.89.47-1.43,1.12-1.43s1.12.54,1.12,1.43S28.46,62,27.82,62,26.7,61.43,26.7,60.54Zm1.94,0c0-.75-.34-1.16-.82-1.16s-.83.41-.83,1.16.34,1.16.83,1.16S28.64,61.28,28.64,60.54Z"/><path class="cls-1" d="M31.16,61.13c0,.47-.34.83-1,.83a1.43,1.43,0,0,1-1-.36l.14-.23a1.21,1.21,0,0,0,.86.33c.47,0,.72-.22.72-.57s-.23-.55-.75-.55h-.2v-.21l.77-1H29.25v-.25h1.8v.2l-.79,1C30.86,60.37,31.16,60.68,31.16,61.13Z"/><path class="cls-1" d="M18.72,80.77c0-1.34.71-2.14,1.68-2.14s1.68.8,1.68,2.14-.71,2.13-1.68,2.13S18.72,82.1,18.72,80.77Zm2.91,0c0-1.12-.5-1.74-1.23-1.74s-1.24.62-1.24,1.74.5,1.74,1.24,1.74S21.63,81.89,21.63,80.77Z"/><path class="cls-1" d="M25.92,81.7c0,.74-.63,1.2-1.63,1.2s-1.62-.46-1.62-1.2a1.06,1.06,0,0,1,.81-1,.94.94,0,0,1-.66-.92c0-.68.58-1.11,1.47-1.11s1.48.43,1.48,1.11a.94.94,0,0,1-.67.92A1.07,1.07,0,0,1,25.92,81.7Zm-.44,0c0-.52-.45-.84-1.19-.84s-1.18.32-1.18.84.44.85,1.18.85S25.48,82.21,25.48,81.69Zm-1.19-1.18c.65,0,1-.29,1-.75s-.41-.76-1-.76-1,.29-1,.75S23.64,80.51,24.29,80.51Z"/><path class="cls-1" d="M26.53,80a.31.31,0,0,1,.32-.32.32.32,0,0,1,.32.32.32.32,0,0,1-.32.33A.32.32,0,0,1,26.53,80Zm0,2.56a.32.32,0,0,1,.32-.33.32.32,0,0,1,.32.33.33.33,0,0,1-.32.33A.32.32,0,0,1,26.53,82.57Z"/><path class="cls-1" d="M30.57,81.66c0,.7-.51,1.24-1.52,1.24a2.16,2.16,0,0,1-1.51-.54l.21-.34a1.84,1.84,0,0,0,1.3.49c.69,0,1.08-.33,1.08-.85s-.36-.83-1.14-.83h-.3v-.32l1.17-1.46H27.71v-.38h2.7V79l-1.19,1.5C30.12,80.51,30.57,81,30.57,81.66Z"/><path class="cls-1" d="M31.18,80.77c0-1.34.7-2.14,1.67-2.14s1.68.8,1.68,2.14-.71,2.13-1.68,2.13S31.18,82.1,31.18,80.77Zm2.91,0c0-1.12-.51-1.74-1.24-1.74s-1.23.62-1.23,1.74.5,1.74,1.23,1.74S34.09,81.89,34.09,80.77Z"/><path class="cls-1" d="M21.31,87.71c0-.89.47-1.43,1.12-1.43s1.12.54,1.12,1.43-.48,1.42-1.12,1.42S21.31,88.6,21.31,87.71Zm1.94,0c0-.75-.34-1.16-.82-1.16s-.83.41-.83,1.16.34,1.16.83,1.16S23.25,88.45,23.25,87.71Z"/><path class="cls-1" d="M26.11,88.33c0,.49-.42.8-1.09.8s-1.08-.31-1.08-.8a.71.71,0,0,1,.54-.69A.63.63,0,0,1,24,87c0-.45.39-.74,1-.74s1,.29,1,.74a.63.63,0,0,1-.45.62A.7.7,0,0,1,26.11,88.33Zm-.3,0c0-.34-.29-.56-.79-.56s-.78.22-.78.56.29.57.78.57S25.81,88.67,25.81,88.32ZM25,87.53c.44,0,.7-.19.7-.49s-.28-.51-.7-.51-.69.19-.69.5S24.59,87.53,25,87.53Z"/><path class="cls-1" d="M26.52,87.2a.21.21,0,0,1,.21-.21.21.21,0,0,1,.21.21.21.21,0,0,1-.21.22A.21.21,0,0,1,26.52,87.2Zm0,1.71a.21.21,0,0,1,.21-.22.21.21,0,0,1,.21.22.22.22,0,0,1-.21.22A.21.21,0,0,1,26.52,88.91Z"/><path class="cls-1" d="M29.26,88.28c0,.48-.33.85-1,.85a1.45,1.45,0,0,1-1-.36l.14-.23a1.21,1.21,0,0,0,.86.33c.47,0,.73-.24.73-.58s-.23-.58-.94-.58h-.59l.14-1.4h1.53v.25H27.83l-.09.9h.35C28.94,87.46,29.26,87.79,29.26,88.28Z"/><path class="cls-1" d="M29.62,87.71c0-.89.47-1.43,1.12-1.43s1.12.54,1.12,1.43-.47,1.42-1.12,1.42S29.62,88.6,29.62,87.71Zm1.94,0c0-.75-.33-1.16-.82-1.16s-.82.41-.82,1.16.33,1.16.82,1.16S31.56,88.45,31.56,87.71Z"/><path class="cls-1" d="M17.52,100.3c0-1.33.7-2.13,1.68-2.13s1.67.8,1.67,2.13-.7,2.14-1.67,2.14S17.52,101.64,17.52,100.3Zm2.91,0c0-1.12-.5-1.73-1.23-1.73S18,99.18,18,100.3s.5,1.74,1.24,1.74S20.43,101.43,20.43,100.3Z"/><path class="cls-1" d="M24.52,100.27c0,1.43-.78,2.17-1.92,2.17a1.93,1.93,0,0,1-1-.23l.17-.35a1.45,1.45,0,0,0,.82.2c.9,0,1.48-.58,1.48-1.72,0-.1,0-.22,0-.34a1.35,1.35,0,0,1-1.29.72,1.27,1.27,0,0,1-1.41-1.26,1.31,1.31,0,0,1,1.43-1.29C23.92,98.17,24.52,98.94,24.52,100.27Zm-.59-.83c0-.47-.39-.9-1.11-.9a.92.92,0,0,0-1,.91c0,.55.41.9,1.06.9A1,1,0,0,0,23.93,99.44Z"/><path class="cls-1" d="M25.15,99.55a.33.33,0,0,1,.65,0,.33.33,0,1,1-.65,0Zm0,2.55a.33.33,0,0,1,.65,0,.33.33,0,1,1-.65,0Z"/><path class="cls-1" d="M26.42,100.3c0-1.33.7-2.13,1.67-2.13s1.68.8,1.68,2.13-.71,2.14-1.68,2.14S26.42,101.64,26.42,100.3Zm2.91,0c0-1.12-.5-1.73-1.24-1.73s-1.23.61-1.23,1.73.5,1.74,1.23,1.74S29.33,101.43,29.33,100.3Z"/><path class="cls-1" d="M30.39,100.3c0-1.33.7-2.13,1.68-2.13s1.67.8,1.67,2.13-.7,2.14-1.67,2.14S30.39,101.64,30.39,100.3Zm2.91,0c0-1.12-.5-1.73-1.23-1.73s-1.24.61-1.24,1.73.5,1.74,1.24,1.74S33.3,101.43,33.3,100.3Z"/><path class="cls-1" d="M20.38,107.25c0-.9.47-1.43,1.11-1.43s1.12.53,1.12,1.43-.47,1.42-1.12,1.42S20.38,108.14,20.38,107.25Zm1.94,0c0-.75-.34-1.16-.83-1.16s-.82.41-.82,1.16.34,1.16.82,1.16S22.32,108,22.32,107.25Z"/><path class="cls-1" d="M25,107.22c0,1-.51,1.45-1.27,1.45a1.38,1.38,0,0,1-.67-.15l.12-.24a.93.93,0,0,0,.54.14c.61,0,1-.39,1-1.15a2,2,0,0,0,0-.23.89.89,0,0,1-.85.48.85.85,0,0,1-.95-.84.87.87,0,0,1,1-.86C24.64,105.82,25,106.34,25,107.22Zm-.39-.55c0-.31-.26-.6-.74-.6a.61.61,0,0,0-.68.6.62.62,0,0,0,.7.61A.65.65,0,0,0,24.65,106.67Z"/><path class="cls-1" d="M25.47,106.74a.21.21,0,0,1,.21-.21.21.21,0,0,1,.21.21.21.21,0,0,1-.21.22A.21.21,0,0,1,25.47,106.74Zm0,1.71a.21.21,0,0,1,.21-.22.21.21,0,0,1,.21.22.21.21,0,0,1-.21.21A.21.21,0,0,1,25.47,108.45Z"/><path class="cls-1" d="M28.22,108.39v.25h-2v-.2l1.16-1.14c.32-.31.38-.5.38-.69s-.23-.52-.66-.52a.94.94,0,0,0-.76.31l-.21-.18a1.3,1.3,0,0,1,1-.4c.56,0,.92.29.92.76a1.12,1.12,0,0,1-.46.87l-.95.94Z"/><path class="cls-1" d="M28.57,107.25c0-.9.46-1.43,1.11-1.43s1.12.53,1.12,1.43-.47,1.42-1.12,1.42S28.57,108.14,28.57,107.25Zm1.93,0c0-.75-.33-1.16-.82-1.16s-.82.41-.82,1.16.33,1.16.82,1.16S30.5,108,30.5,107.25Z"/><path class="cls-1" d="M18.6,120.41c0-1.34.7-2.14,1.68-2.14s1.67.8,1.67,2.14-.7,2.13-1.67,2.13S18.6,121.74,18.6,120.41Zm2.91,0c0-1.12-.5-1.74-1.23-1.74s-1.24.62-1.24,1.74.5,1.74,1.24,1.74S21.51,121.53,21.51,120.41Z"/><path class="cls-1" d="M25.6,120.37c0,1.43-.78,2.17-1.92,2.17a1.82,1.82,0,0,1-1-.23l.17-.34a1.53,1.53,0,0,0,.82.19c.9,0,1.48-.58,1.48-1.72,0-.09,0-.21,0-.34a1.36,1.36,0,0,1-1.29.72,1.27,1.27,0,0,1-1.41-1.26,1.31,1.31,0,0,1,1.43-1.29C25,118.27,25.6,119.05,25.6,120.37Zm-.59-.83c0-.46-.39-.9-1.11-.9a.92.92,0,0,0-1,.91c0,.55.41.91,1.06.91A1,1,0,0,0,25,119.54Z"/><path class="cls-1" d="M26.23,119.65a.32.32,0,0,1,.32-.32.33.33,0,0,1,0,.65A.32.32,0,0,1,26.23,119.65Zm0,2.56a.32.32,0,0,1,.32-.33.32.32,0,0,1,.32.33.32.32,0,0,1-.32.33A.33.33,0,0,1,26.23,122.21Z"/><path class="cls-1" d="M30.28,121.3c0,.7-.51,1.24-1.53,1.24a2.2,2.2,0,0,1-1.51-.54l.21-.34a1.86,1.86,0,0,0,1.3.49c.7,0,1.08-.33,1.08-.85s-.35-.83-1.13-.83h-.3v-.32l1.16-1.46H27.42v-.38h2.69v.3l-1.18,1.5C29.83,120.16,30.28,120.63,30.28,121.3Z"/><path class="cls-1" d="M30.88,120.41c0-1.34.7-2.14,1.68-2.14s1.68.8,1.68,2.14-.71,2.13-1.68,2.13S30.88,121.74,30.88,120.41Zm2.91,0c0-1.12-.5-1.74-1.23-1.74s-1.24.62-1.24,1.74.5,1.74,1.24,1.74S33.79,121.53,33.79,120.41Z"/><path class="cls-1" d="M21.16,127.35c0-.89.47-1.42,1.12-1.42s1.11.53,1.11,1.42-.47,1.42-1.11,1.42S21.16,128.24,21.16,127.35Zm1.94,0c0-.75-.34-1.16-.82-1.16s-.83.41-.83,1.16.34,1.16.83,1.16S23.1,128.1,23.1,127.35Z"/><path class="cls-1" d="M25.83,127.32c0,1-.52,1.45-1.28,1.45a1.28,1.28,0,0,1-.67-.15l.12-.23a1,1,0,0,0,.54.13c.61,0,1-.39,1-1.15a2,2,0,0,0,0-.23.89.89,0,0,1-.85.48.85.85,0,0,1-1-.84.87.87,0,0,1,1-.85C25.42,125.93,25.83,126.44,25.83,127.32Zm-.4-.55c0-.31-.26-.6-.74-.6a.61.61,0,0,0-.68.61c0,.36.27.6.7.6A.64.64,0,0,0,25.43,126.77Z"/><path class="cls-1" d="M26.25,126.84a.21.21,0,0,1,.42,0,.21.21,0,1,1-.42,0Zm0,1.71a.21.21,0,1,1,.42,0,.21.21,0,1,1-.42,0Z"/><path class="cls-1" d="M29,127.92c0,.48-.33.85-1,.85a1.45,1.45,0,0,1-1-.36l.14-.23a1.21,1.21,0,0,0,.86.33c.48,0,.73-.23.73-.57s-.23-.59-.94-.59h-.59l.14-1.4h1.53v.25H27.56l-.09.9h.36C28.67,127.1,29,127.43,29,127.92Z"/><path class="cls-1" d="M29.35,127.35c0-.89.47-1.42,1.12-1.42s1.12.53,1.12,1.42-.47,1.42-1.12,1.42S29.35,128.24,29.35,127.35Zm1.94,0c0-.75-.33-1.16-.82-1.16s-.82.41-.82,1.16.33,1.16.82,1.16S31.29,128.1,31.29,127.35Z"/><path class="cls-1" d="M20,148.24v4.2h-.43v-3.82h-1v-.38Z"/><path class="cls-1" d="M21,150.34c0-1.34.7-2.14,1.67-2.14s1.68.8,1.68,2.14-.71,2.13-1.68,2.13S21,151.68,21,150.34Zm2.91,0c0-1.12-.51-1.74-1.24-1.74s-1.23.62-1.23,1.74.5,1.74,1.23,1.74S23.94,151.46,23.94,150.34Z"/><path class="cls-1" d="M25,149.58a.33.33,0,0,1,.65,0,.33.33,0,1,1-.65,0Zm0,2.56a.33.33,0,1,1,.65,0,.33.33,0,1,1-.65,0Z"/><path class="cls-1" d="M26.27,150.34c0-1.34.7-2.14,1.67-2.14s1.68.8,1.68,2.14-.71,2.13-1.68,2.13S26.27,151.68,26.27,150.34Zm2.91,0c0-1.12-.5-1.74-1.24-1.74s-1.23.62-1.23,1.74.5,1.74,1.23,1.74S29.18,151.46,29.18,150.34Z"/><path class="cls-1" d="M30.24,150.34c0-1.34.7-2.14,1.68-2.14s1.67.8,1.67,2.14-.7,2.13-1.67,2.13S30.24,151.68,30.24,150.34Zm2.91,0c0-1.12-.5-1.74-1.23-1.74s-1.24.62-1.24,1.74.5,1.74,1.24,1.74S33.15,151.46,33.15,150.34Z"/><path class="cls-1" d="M22.24,155.88v2.8H22v-2.54H21.3v-.26Z"/><path class="cls-1" d="M22.91,157.28c0-.89.47-1.42,1.12-1.42s1.12.53,1.12,1.42-.47,1.42-1.12,1.42S22.91,158.17,22.91,157.28Zm1.94,0c0-.75-.33-1.16-.82-1.16s-.82.41-.82,1.16.33,1.16.82,1.16S24.85,158,24.85,157.28Z"/><path class="cls-1" d="M25.57,156.78a.21.21,0,0,1,.21-.22.21.21,0,0,1,.21.22.21.21,0,0,1-.21.21A.21.21,0,0,1,25.57,156.78Zm0,1.7a.21.21,0,0,1,.21-.22.21.21,0,0,1,.21.22.22.22,0,0,1-.21.22A.21.21,0,0,1,25.57,158.48Z"/><path class="cls-1" d="M28.32,158.42v.26h-2v-.21l1.16-1.14c.32-.31.38-.49.38-.69s-.23-.52-.66-.52a.94.94,0,0,0-.76.31l-.21-.17a1.27,1.27,0,0,1,1-.4c.56,0,.92.28.92.75a1.15,1.15,0,0,1-.46.88l-.95.93Z"/><path class="cls-1" d="M28.67,157.28c0-.89.46-1.42,1.11-1.42s1.12.53,1.12,1.42-.47,1.42-1.12,1.42S28.67,158.17,28.67,157.28Zm1.93,0c0-.75-.33-1.16-.82-1.16s-.82.41-.82,1.16.33,1.16.82,1.16S30.6,158,30.6,157.28Z"/><path class="cls-1" d="M20.21,169v4.2h-.43v-3.81h-1V169Z"/><path class="cls-1" d="M24.08,172.8v.38H21.14v-.31l1.74-1.71c.48-.46.57-.75.57-1,0-.49-.35-.79-1-.79a1.4,1.4,0,0,0-1.14.47l-.31-.26a1.87,1.87,0,0,1,1.49-.6c.85,0,1.39.43,1.39,1.13a1.73,1.73,0,0,1-.69,1.31l-1.43,1.41Z"/><path class="cls-1" d="M24.63,170.32A.32.32,0,0,1,25,170a.32.32,0,0,1,.32.32.33.33,0,0,1-.32.34A.33.33,0,0,1,24.63,170.32Zm0,2.56a.31.31,0,0,1,.32-.32.32.32,0,0,1,.32.32.32.32,0,0,1-.32.33A.32.32,0,0,1,24.63,172.88Z"/><path class="cls-1" d="M25.89,171.08c0-1.34.71-2.13,1.68-2.13s1.68.79,1.68,2.13-.71,2.14-1.68,2.14S25.89,172.42,25.89,171.08Zm2.91,0c0-1.12-.5-1.74-1.23-1.74s-1.24.62-1.24,1.74.5,1.74,1.24,1.74S28.8,172.2,28.8,171.08Z"/><path class="cls-1" d="M29.87,171.08c0-1.34.7-2.13,1.67-2.13s1.68.79,1.68,2.13-.71,2.14-1.68,2.14S29.87,172.42,29.87,171.08Zm2.9,0c0-1.12-.5-1.74-1.23-1.74s-1.24.62-1.24,1.74.51,1.74,1.24,1.74S32.77,172.2,32.77,171.08Z"/><path class="cls-1" d="M22.75,176.62v2.8h-.29v-2.54H21.8v-.26Z"/><path class="cls-1" d="M24.2,176.62v2.8h-.29v-2.54h-.66v-.26Z"/><path class="cls-1" d="M24.87,177.52a.21.21,0,0,1,.21-.22.22.22,0,0,1,.22.22.22.22,0,0,1-.22.22A.21.21,0,0,1,24.87,177.52Zm0,1.7a.21.21,0,0,1,.21-.21.21.21,0,0,1,.22.21.22.22,0,0,1-.22.22A.21.21,0,0,1,24.87,179.22Z"/><path class="cls-1" d="M27.62,179.16v.26h-2v-.2l1.16-1.14c.32-.31.38-.5.38-.69s-.23-.53-.66-.53a1,1,0,0,0-.76.31l-.2-.17a1.23,1.23,0,0,1,1-.4c.56,0,.93.29.93.75a1.18,1.18,0,0,1-.46.88l-1,.93Z"/><path class="cls-1" d="M28,178c0-.89.47-1.42,1.11-1.42s1.12.53,1.12,1.42-.47,1.42-1.12,1.42S28,178.91,28,178Zm1.94,0c0-.75-.34-1.16-.83-1.16s-.82.41-.82,1.16.34,1.16.82,1.16S29.91,178.77,29.91,178Z"/></g></g></svg>