<svg xmlns="http://www.w3.org/2000/svg" viewBox="0 0 137.21 276.99"><defs><style>.cls-1{fill:#1d1d1b;}.cls-2{fill:#fff;}.cls-3{fill:#1e1e1e;opacity:0.92;}.cls-4{fill:#5986c5;}</style></defs><g id="Layer_2" data-name="Layer 2"><g id="Laag_1" data-name="Laag 1"><g id="ifunny"><rect class="cls-1" x="131.43" y="22.19" width="5.75" height="28.44" rx="1" transform="translate(-0.08 0.31) rotate(-0.13)"/><rect class="cls-1" x="2.92" y="0.12" width="132.11" height="276.75" rx="13.32" transform="translate(-0.32 0.16) rotate(-0.13)"/><rect class="cls-2" x="13.17" y="12.71" width="110.89" height="253.5" rx="2.83" transform="translate(-0.32 0.16) rotate(-0.13)"/><rect class="cls-1" x="0.65" y="51.24" width="5.75" height="16.05" rx="1" transform="translate(-0.14 0.01) rotate(-0.13)"/><rect class="cls-1" x="0.02" y="73.6" width="5.75" height="16.05" rx="1" transform="translate(-0.19 0.01) rotate(-0.13)"/></g><rect class="cls-3" x="12.55" y="12.58" width="112" height="253.81" rx="2.83" transform="translate(-0.32 0.16) rotate(-0.13)"/><rect class="cls-2" x="20.77" y="80.23" width="93.8" height="101" rx="8.49"/><circle class="cls-4" cx="68.24" cy="119.59" r="21.39"/><polygon class="cls-2" points="65.75 133.26 51.9 120.49 56.72 115.26 65.03 122.91 81.4 102.89 86.91 107.4 65.75 133.26"/><path class="cls-4" d="M53.64,150.17l-2.21,8.4H50.7l-1.92-7.16-1.92,7.16h-.72l-2.21-8.4h.71l1.89,7.22,1.95-7.22h.65l1.93,7.26L53,150.17Z"/><path class="cls-4" d="M58.67,155.68H54.56a2,2,0,0,0,1.93,2.19A1.77,1.77,0,0,0,58,157l.37.56a2.21,2.21,0,0,1-1.9,1c-1.53,0-2.58-1.35-2.58-3.22s1-3.2,2.41-3.2,2.38,1.31,2.38,3.2C58.68,155.49,58.67,155.58,58.67,155.68ZM54.56,155H58c-.08-1.23-.78-2.1-1.74-2.1S54.64,153.81,54.56,155Z"/><path class="cls-4" d="M60,149.67h.66v8.9H60Z"/><path class="cls-4" d="M62.55,149.67h.67v8.9h-.67Z"/><path class="cls-4" d="M72,149.67v8.9h-.64v-1.25a2.07,2.07,0,0,1-1.9,1.31c-1.4,0-2.45-1.31-2.45-3.22s1-3.2,2.45-3.2a2.05,2.05,0,0,1,1.87,1.25v-3.79Zm-.66,5.74c0-1.47-.78-2.46-1.82-2.46s-1.83,1-1.83,2.46.78,2.46,1.83,2.46S71.35,156.89,71.35,155.41Z"/><path class="cls-4" d="M73.37,155.41c0-1.87,1.06-3.2,2.5-3.2s2.5,1.33,2.5,3.2-1.06,3.22-2.5,3.22S73.37,157.28,73.37,155.41Zm4.32,0c0-1.47-.77-2.46-1.82-2.46s-1.83,1-1.83,2.46.78,2.46,1.83,2.46S77.69,156.89,77.69,155.41Z"/><path class="cls-4" d="M84.25,154.91v3.66h-.66V155c0-1.33-.54-2-1.48-2s-1.72.84-1.72,2.28v3.31h-.66v-6.31h.63v1.16a2,2,0,0,1,1.87-1.21C83.43,152.21,84.25,153.1,84.25,154.91Z"/><path class="cls-4" d="M90.36,155.68H86.25a2,2,0,0,0,1.93,2.19,1.77,1.77,0,0,0,1.51-.83l.37.56a2.21,2.21,0,0,1-1.9,1c-1.53,0-2.58-1.35-2.58-3.22s1-3.2,2.4-3.2,2.39,1.31,2.39,3.2C90.37,155.49,90.36,155.58,90.36,155.68ZM86.25,155h3.48c-.08-1.23-.78-2.1-1.75-2.1S86.33,153.81,86.25,155Z"/><path class="cls-4" d="M91.52,158a.56.56,0,0,1,.5-.61c.28,0,.48.27.48.61s-.2.63-.48.63A.58.58,0,0,1,91.52,158Zm.1-7.83h.79l-.14,5.88h-.51Z"/></g></g></svg>