<?xml version="1.0" encoding="utf-8"?>
<!-- Generator: Adobe Illustrator 24.1.0, SVG Export Plug-In . SVG Version: 6.00 Build 0)  -->
<svg version="1.1" xmlns="http://www.w3.org/2000/svg" xmlns:xlink="http://www.w3.org/1999/xlink" x="0px" y="0px"
	 viewBox="0 0 500 500" style="enable-background:new 0 0 500 500;" xml:space="preserve">
<style type="text/css">
	.st0{fill:#FBB03B;}
	.st1{fill:#F7931E;}
	.st2{fill:#1A1A1A;}
	.st3{fill:#FFFFFF;}
</style>
<g id="Feet">
	<path class="st0" d="M181.7,470.4L181.7,470.4c-7.4-3.6-10.5-12.6-6.9-20.1l35.5-72.8c3.6-7.4,12.6-10.5,20.1-6.9h0
		c7.4,3.6,10.5,12.6,6.9,20.1l-35.5,72.8C198.1,470.9,189.1,474,181.7,470.4z"/>
	<path class="st1" d="M257.7,470.4L257.7,470.4c-7.4-3.6-10.5-12.6-6.9-20.1l35.5-72.8c3.6-7.4,12.6-10.5,20.1-6.9h0
		c7.4,3.6,10.5,12.6,6.9,20.1l-35.5,72.8C274.1,470.9,265.1,474,257.7,470.4z"/>
	<circle class="st2" cx="286.6" cy="407.1" r="22.5"/>
	<circle class="st2" cx="211.4" cy="409.3" r="22.5"/>
	<path class="st1" d="M131,464L131,464c0-8.3,6.8-15,15-15h81c8.2,0,15,6.8,15,15v0c0,8.2-6.8,15-15,15h-81
		C137.8,479,131,472.2,131,464z"/>
	<path class="st0" d="M209,464L209,464c0-8.3,6.8-15,15-15h81c8.2,0,15,6.8,15,15v0c0,8.2-6.8,15-15,15h-81
		C215.8,479,209,472.2,209,464z"/>
</g>
<g id="Body">
	<path d="M382.4,207.5c-23.7,16.3-53.3,25.9-85.3,25.9c-17.4,0-34.1-2.8-49.4-8l0-131.8c0-39.8-32.6-72.3-72.3-72.3h0
		c-39.8,0-72.3,32.6-72.3,72.3v12.5c0,0,0,0,0,0v167.6c0,0,0,0,0,0v7c0,5.7,0.7,11.2,1.9,16.5c11.3,68.3,71,120.8,142.3,120.8h4.3
		c79.3,0,144.2-64.9,144.2-144.2v-59.3C395.7,207.6,388.1,203.7,382.4,207.5z"/>
	<path class="st1" d="M104.7,180.2H88.8c-17.5,0-31.8-14.3-31.8-31.8v0c0-17.5,14.3-31.8,31.8-31.8h15.9c14.2,0,25.7,11.5,25.7,25.7
		v12.2C130.4,168.7,118.9,180.2,104.7,180.2z"/>
	<path class="st0" d="M130.4,149.2v-6.5c0-14.2-11.5-25.7-25.7-25.7H88.8C71.3,117,57,131.3,57,148.8v0.4H130.4z"/>
	<path class="st3" d="M218.2,95c0,5.5-1.3,10.8-3.5,15.5c-5.7-3.8-12.5-6.1-19.9-6.1c-14.1,0-26.3,8.2-32.1,20.2
		c-9.5-6.4-15.7-17.2-15.7-29.5c0-19.7,15.9-35.6,35.6-35.6S218.2,75.4,218.2,95z"/>
</g>
<g id="Wings">
	<path class="st2" d="M443.8,285.8c-0.8,5.4-3.8,9.9-7.9,12.8c-4.1,3-9.3,4.4-14.6,3.6l-232.4-36.5l6.1-38.9l232.4,36.5
		C438.1,265,445.4,275.1,443.8,285.8z"/>
	<path class="st2" d="M408,320c-0.8,5.4-3.8,9.9-7.9,12.8c-4.1,3-9.3,4.4-14.6,3.6l-202.7-31.9l6.1-38.9l202.7,31.9
		C402.3,299.2,409.7,309.3,408,320z"/>
	<path class="st2" d="M348.2,350.5c-0.8,5.4-3.8,9.9-7.9,12.8c-4.1,3-9.3,4.4-14.6,3.6l-149-23.4l6.1-38.9l149,23.4
		C342.5,329.7,349.9,339.8,348.2,350.5z"/>
	<path class="st2" d="M195,226.8l-18.3,116.6c-12.8-2-19-29.8-14-62C167.8,249.3,182.2,224.8,195,226.8z"/>
</g>
</svg>
