<svg xmlns="http://www.w3.org/2000/svg" width="49.65" height="52.772" viewBox="0 0 49.65 52.772">
  <g id="alarm-clock-svgrepo-com" transform="translate(-1.354)">
    <g id="Group_68" data-name="Group 68" transform="translate(1.354 0)">
      <path id="Path_76" data-name="Path 76" d="M5.651,15.837A21.729,21.729,0,0,1,18.7,6.628a1.337,1.337,0,0,0,.82-2.011A9.831,9.831,0,1,0,3.481,15.935a1.341,1.341,0,0,0,2.17-.1Z" transform="translate(-1.354 0)" fill="#fff"/>
      <path id="Path_77" data-name="Path 77" d="M37.015,0a9.812,9.812,0,0,0-8.305,4.582A1.337,1.337,0,0,0,29.534,6.6a21.714,21.714,0,0,1,13.107,9.14,1.34,1.34,0,0,0,2.177.077A9.827,9.827,0,0,0,37.015,0Z" transform="translate(2.796 0)" fill="#fff"/>
      <path id="Path_78" data-name="Path 78" d="M47.5,29.006A21.667,21.667,0,0,0,29.116,7.61a21.629,21.629,0,0,0-3.289-.277A21.978,21.978,0,0,0,6.81,18.623a21.59,21.59,0,0,0,4.656,26.57L9.641,47.766a2.46,2.46,0,1,0,4.011,2.85l1.825-2.571a21.632,21.632,0,0,0,20.7,0L38,50.616a2.46,2.46,0,0,0,4.011-2.85l-1.826-2.572A21.6,21.6,0,0,0,47.5,29.006ZM25.828,44.618A15.61,15.61,0,1,1,41.439,29,15.629,15.629,0,0,1,25.828,44.618Z" transform="translate(-0.926 1.121)" fill="#fff"/>
      <path id="Path_79" data-name="Path 79" d="M32.087,31.245l-5.956-3.678a2.845,2.845,0,0,0-1.03-1.722l.272-7.473a1.729,1.729,0,1,0-3.456-.127l-.273,7.481a2.873,2.873,0,0,0,2.913,4.934l5.713,3.53a1.73,1.73,0,1,0,1.817-2.946Z" transform="translate(1.561 2.535)" fill="#fff"/>
    </g>
  </g>
</svg>
