<svg xmlns="http://www.w3.org/2000/svg" width="25.767" height="31.023" viewBox="0 0 25.767 31.023">
  <g id="left-arrow" transform="translate(-41.674 31.023) rotate(-90)">
    <g id="Group_44" data-name="Group 44" transform="translate(0 41.674)">
      <path id="Path_34" data-name="Path 34" d="M29.279,52.125l.048.011H8.568l6.526-6.54a1.714,1.714,0,0,0,0-2.409L14.079,42.17a1.7,1.7,0,0,0-2.4,0L.494,53.354a1.71,1.71,0,0,0,0,2.406L11.681,66.947a1.7,1.7,0,0,0,2.4,0l1.015-1.016a1.68,1.68,0,0,0,.495-1.2,1.63,1.63,0,0,0-.495-1.176l-6.6-6.577H29.3a1.758,1.758,0,0,0,1.721-1.74V53.8A1.724,1.724,0,0,0,29.279,52.125Z" transform="translate(0 -41.674)" fill="#fff"/>
    </g>
  </g>
</svg>
