<?xml version="1.0" encoding="utf-8"?>
<!-- Generator: Adobe Illustrator 24.0.1, SVG Export Plug-In . SVG Version: 6.00 Build 0)  -->
<svg version="1.1" id="Laag_1" xmlns="http://www.w3.org/2000/svg" xmlns:xlink="http://www.w3.org/1999/xlink" x="0px" y="0px"
	 viewBox="0 0 300 300" style="enable-background:new 0 0 300 300;" xml:space="preserve">
<style type="text/css">
	.st0{fill:#5A81B7;}
	.st1{fill:#D0AC9D;}
	.st2{fill:#344A26;}
	.st3{fill:#B89385;}
	.st4{fill:#D4B9A3;}
	.st5{fill:#040506;}
	.st6{fill:#F9F9FA;}
	.st7{fill:#CDA69A;}
	.st8{fill:#6B441B;}
</style>
<g>
	<path class="st0" d="M234.5,149.9c0,22.6-8.8,43.1-23.2,58.3c-12,12.7-27.9,21.6-45.7,25c-1.2,0.2-2.5,0.4-3.7,0.6
		c-0.2,0-0.4,0.1-0.6,0.1c-3.8,0.5-7.6,0.8-11.5,0.8c-2.5,0-5-0.1-7.4-0.3c-0.2,0-0.4,0-0.7-0.1h0c-0.6-0.1-1.3-0.1-1.9-0.2
		c-15.6-1.8-29.8-7.8-41.6-16.9C78,201.7,65,177.3,65,149.9c0-46.8,38-84.8,84.8-84.8S234.5,103.1,234.5,149.9z"/>
	<path class="st1" d="M161.9,234.2v-0.4v-19.3h-1h-21v0.1v19.5c0.6,0.1,1.2,0.1,1.9,0.2L161.9,234.2z"/>
	<ellipse class="st1" cx="97.9" cy="143.4" rx="9.3" ry="10.6"/>
	<path class="st1" d="M198.7,144.6v17.2c0,0.9,0,1.8-0.1,2.7c-0.3,7.1-1.9,13.8-4.4,19.9c-6.2,15-18.5,26.4-33.3,30.1
		c-1.7,0.4-3.5,0.8-5.3,1c-1.8,0.2-3.5,0.3-5.4,0.3c-3.6,0-7-0.4-10.4-1.3c-5.6-1.4-10.9-3.9-15.6-7.3c-7.6-5.5-13.8-13.3-17.7-22.5
		c-2.1-4.9-3.5-10.2-4.2-15.8c-0.3-2.4-0.4-4.8-0.4-7.2v-17.2c0-1.3,0.1-2.6,0.1-3.9c0,0,0-0.1,0-0.1c0-0.7,0.1-1.4,0.2-2.1
		c0-0.1,0-0.2,0-0.3c0,0,0-0.1,0-0.1c0.1-0.9,0.2-1.8,0.3-2.7c0-0.2,0.1-0.5,0.1-0.7c0-0.2,0.1-0.3,0.1-0.5c0,0,0-0.1,0-0.1
		c0-0.2,0.1-0.5,0.1-0.7c4.6-24.5,24.1-43,47.4-43c1.8,0,3.6,0.1,5.4,0.3c11.2,1.4,21.3,7.1,28.8,15.5c5.1,5.7,9,12.5,11.4,20.1
		c0.2,0.6,0.4,1.1,0.5,1.7c0.1,0.5,0.3,0.9,0.4,1.4v0c0.2,0.9,0.5,1.8,0.6,2.7h0c0.1,0.5,0.2,1,0.3,1.4c0,0.1,0,0.1,0,0.2
		c0,0,0,0,0,0.1C198.4,137.5,198.7,141,198.7,144.6z"/>
	<path class="st2" d="M132.4,153.7h-3.8c-2.8,0-5.1-2.3-5.1-5.1v-7.9c0-2.8,2.3-5.1,5.1-5.1h3.8c2.8,0,5.1,2.3,5.1,5.1v7.9
		C137.6,151.3,135.3,153.7,132.4,153.7z"/>
	<path class="st2" d="M175,153.7h-4.3c-2.8,0-5.1-2.3-5.1-5.1v-7.8c0-2.8,2.3-5.1,5.1-5.1h4.3c2.8,0,5.1,2.3,5.1,5.1v7.8
		C180.2,151.3,177.9,153.7,175,153.7z"/>
	<circle class="st3" cx="147.5" cy="171.1" r="2"/>
	<circle class="st3" cx="154.2" cy="171.1" r="2"/>
	<path class="st4" d="M175.8,112.4c0.6,0.3,0.9,0.5,0.9,0.7C176.8,113.9,176.4,113.4,175.8,112.4z"/>
	<path class="st5" d="M201.1,134.7l-2.5-2.9l-2-2.3l-1-1.1l-7.8-9v8.7L170,109.6c0,0,2.9,6.5,4.4,9.1c-2.4-1.2-10.3-2.6-17.1-3.5
		c-6.1-0.9-11.3-1.5-11.3-1.5c-1.1-2-19.7,7.2-19.7,7.2s2,0.1,3.2,0.2c-1.9,0.1-9.7,7.4-16.6,14.1c-1,1-1.9,1.9-2.8,2.8
		c-0.9,0.9-1.7,1.7-2.5,2.5c-1,1-1.9,1.9-2.7,2.7c-1.6,1.6-2.7,2.8-3,3.1c0,0,0,0-0.1,0.1l0.1-0.1l3.2-5.5l1.2-2l2.4-4.1l-3.2,2.8
		l-0.5,0.4l-3.1,2.7l-0.2,0.2l0.6-3.8l3.1-21.3l8.1-15h-8.1l13.9-8.9l10.2,0.2c8.5-5.9,19.6-5,27.7-3.2c6.2,1.4,10.5,3.4,10.5,3.4
		c2.9-2.4,26.2,13,26.2,13c4.2,0.7,6.5,23.2,7,28.5C201.1,134.3,201.1,134.7,201.1,134.7z"/>
	<path class="st1" d="M209,143c0,5.6-3.8,10.2-8.7,10.6c-0.2,0-0.4,0-0.6,0c-5.1,0-9.3-4.7-9.3-10.6c0-0.8,0.1-1.5,0.2-2.2
		c0.8-4.4,4-7.8,7.9-8.3c0.1,0,0.3,0,0.5-0.1c0.1,0,0.2,0,0.3,0c0.1,0,0.3,0,0.4,0C204.8,132.4,209,137.2,209,143z"/>
	<path class="st3" d="M137.9,187.8c0,0,15.2,8.2,26,0C163.9,187.8,151.1,204.7,137.9,187.8z"/>
	<path class="st6" d="M133.9,144.2h-1c-1.3,0-2.4-1.1-2.4-2.4v-3c0-1.3,1.1-2.4,2.4-2.4h1c1.3,0,2.4,1.1,2.4,2.4v3
		C136.2,143.2,135.2,144.2,133.9,144.2z"/>
	<path class="st7" d="M198.6,164.5c-0.3,7.1-1.9,13.8-4.4,19.9c-1.8,1.3-3.8,2.1-6,2.1c-6.6,0-11.9-6.7-11.9-14.9
		c0-8.2,5.3-14.9,11.9-14.9C192.7,156.7,196.6,159.9,198.6,164.5z"/>
	<path class="st7" d="M106.5,184.9c2,1.9,4.5,3.1,7.2,3.1c6.6,0,11.9-6.7,11.9-14.9c0-8.2-5.3-14.9-11.9-14.9
		c-5.5,0-10.1,4.6-11.4,10.9L106.5,184.9z"/>
	<path class="st5" d="M141.5,130.6c0,0-14.4-4.3-22,0.7C119.5,131.3,128.8,129.9,141.5,130.6z"/>
	<path class="st5" d="M184.1,131.8c0,0-14.4-4.3-22,0.7C162.1,132.5,171.4,131.1,184.1,131.8z"/>
	<circle class="st8" cx="174.8" cy="123.5" r="0.4"/>
	<path class="st6" d="M176.3,144.3h-1c-1.3,0-2.4-1.1-2.4-2.4v-3c0-1.3,1.1-2.4,2.4-2.4h1c1.3,0,2.4,1.1,2.4,2.4v3
		C178.6,143.3,177.6,144.3,176.3,144.3z"/>
	<polygon class="st1" points="161.9,234.2 161.3,233.9 150.8,228.6 141.8,234.3 141.7,234.3 	"/>
	<path class="st1" d="M139.9,234.1c0,0,1.8,1.5,22,0.1l-10.1-8.4L139.9,234.1z"/>
</g>
</svg>
