<?xml version="1.0" encoding="utf-8"?>
<!-- Generator: Adobe Illustrator 24.0.1, SVG Export Plug-In . SVG Version: 6.00 Build 0)  -->
<svg version="1.1" id="Laag_1" xmlns="http://www.w3.org/2000/svg" xmlns:xlink="http://www.w3.org/1999/xlink" x="0px" y="0px"
	 viewBox="0 0 300 300" style="enable-background:new 0 0 300 300;" xml:space="preserve">
<style type="text/css">
	.st0{fill:#CFCECE;}
	.st1{fill:#734B36;}
	.st2{fill:#F0C9B7;}
	.st3{fill:none;}
	.st4{opacity:6.000000e-02;fill:#E6007E;}
	.st5{opacity:0.26;fill:#D2907C;}
	.st6{fill:#D4B9A3;}
	.st7{fill:#261B14;}
	.st8{opacity:0.26;fill:#9A7069;}
	.st9{fill:#335F74;}
	.st10{fill:#F9F9FA;}
	.st11{opacity:0.23;fill:#B2B2B2;}
	.st12{opacity:0.72;fill:none;stroke:#000000;stroke-miterlimit:10;}
</style>
<g>
	<g>
		<path class="st0" d="M234.5,149.8c0,22.6-8.8,43-23.2,58.2c0,0,0,0,0,0c-0.1,0.1-0.1,0.2-0.2,0.2c-0.4,0.5-0.9,0.9-1.3,1.3
			c-7,7.1-15.3,12.9-24.4,17.1h0c-5.5,2.6-11.4,4.6-17.5,5.9c0,0,0,0-0.1,0c-0.1,0-0.2,0-0.2,0c-0.7,0.1-1.3,0.3-2,0.4
			c-2.5,0.5-5,0.8-7.6,1.1c-0.2,0-0.4,0-0.7,0.1c-2.5,0.2-5,0.3-7.5,0.3c-1.8,0-3.7-0.1-5.5-0.2c-0.6,0-1.2-0.1-1.9-0.1
			c-2.7-0.2-5.4-0.6-8-1.1c-1.4-0.2-2.8-0.5-4.1-0.8l-0.2,0c-0.8-0.2-1.5-0.4-2.2-0.6c-0.9-0.2-1.8-0.5-2.7-0.8l-0.9-0.3v0
			c-0.7-0.2-1.4-0.5-2.1-0.7v0c-1.1-0.4-2.2-0.8-3.2-1.2c-1.3-0.5-2.5-1-3.8-1.6c-0.3-0.1-0.6-0.3-0.9-0.4c-3.2-1.5-6.2-3.1-9.2-5
			c-0.6-0.4-1.3-0.8-1.9-1.2h0c-0.2-0.1-0.4-0.2-0.5-0.4c-1.5-1-3-2-4.4-3.1c-1-0.7-1.9-1.5-2.8-2.3c-0.2-0.2-0.4-0.3-0.6-0.5
			c-1.7-1.4-3.3-2.9-4.8-4.4c-0.1-0.1-0.2-0.2-0.3-0.3l-0.4-0.4c-0.1-0.1-0.1-0.2-0.2-0.2c-0.1-0.1-0.2-0.2-0.4-0.4
			c-0.1-0.1-0.3-0.3-0.4-0.4C73.9,192.9,65,172.4,65,149.8C65,103,103,65,149.8,65S234.5,103,234.5,149.8z"/>
	</g>
	<g>
		<g id="melissa">
			<path class="st1" d="M87.6,224.7c0,0-0.1,0-0.1,0h-0.3c0,0,0.1,0,0.3,0H87.6z"/>
			<path class="st1" d="M209.8,209.6c-7,7.1-15.3,12.9-24.4,17.1h0c-4.7-1.6-14.1-4.5-13.9-2.8c0.3,2.3-2.9,7.6-2.9,7.6l-0.8-0.2
				l-16.7-3.3c-1.1,0.9-3.7,1.2-6.9,1.3c-2.2,0.1-4.7,0-7-0.1c-3.5-0.2-6.6-0.5-8.1-0.7c-0.3,0-0.5,0-0.6-0.1c-0.2,0-0.3,0-0.3,0
				s-0.1-0.1-0.4-0.2c0,0-0.1,0-0.1-0.1c-1.6-0.9-6.6-3.7-9.6-4.5c-1.4-0.4-2.3-0.3-2.3,0.6c0,0.6-0.3,1.2-0.9,1.8
				c-0.2,0.2-0.4,0.4-0.7,0.6c-3.2-1.5-6.2-3.1-9.2-5v-4.4c-0.2,1.3-0.9,2.3-1.9,3.2h0c0,0,0,0,0,0l-0.5-0.4l-7.2-5.4
				c1.5-2.6,2.6-4.7,2.6-4.7l8.1-4.2h0l3.6-1.9l8.4-4.3l53.5-27.5l1.4-0.7c0,0,0,0,0,0l0.3-0.1l15.3-7.9l1.2-0.6h0l0.3-0.1l3.9-2
				c0,0,0,0,0,0l5.9-3v0l0.9-0.4l1.2-0.6l0.3,1.9v0l0.5,3.5l0.1,1l2.1,14.4v0l0.9,6.4l0.3,2.1c0,0,0,0,0,0l3,20.5L209.8,209.6z"/>
			<polygon class="st2" points="167.9,232.6 167.9,231.4 167.9,214.6 167.9,211.5 144.3,211.5 144.3,214.2 144.3,229.4 144.3,234.3 
							"/>
			<path class="st1" d="M96.5,186.4C96.5,186.4,96.5,186.4,96.5,186.4L96.5,186.4C96.5,186.4,96.5,186.4,96.5,186.4
				C96.5,186.4,96.5,186.4,96.5,186.4C96.5,186.4,96.5,186.5,96.5,186.4C96.4,186.5,96.4,186.5,96.5,186.4c-0.5,0.8-5.5,4.5-5.5,4.5
				l3.6-14.2l6.2-16.2l4.7-12.3l0.7,0.2l4.6,1.7l0.3,0.1l0.8,0.3l0.7,0.2l1.5,0.6l1.2,0.4l2.3,0.8l0.2,0.1l13.9,5l11.8,4.3l6.3,2.3
				l0.2,0.1l21.7,7.9l11.7,4.2l9.3,3.4l2.6,12.5l1.4,6.4l0.9,4l-5.2,0.2l-67.8,2.4l-14.5,0.5l-4,0.1h0l-7,0.2l-1.1,0l-0.8,0.3
				l-7.5,3L96.5,186.4z"/>
			<path class="st3" d="M87.5,210.4C87.5,210.4,87.5,210.4,87.5,210.4l0.2-0.1c0,0,0,0,0.1,0l0.4-0.2"/>
			<path class="st3" d="M98,195.1L98,195.1C98,195.1,98,195.1,98,195.1C98,195.1,97.9,195.1,98,195.1
				C97.9,195.1,97.9,195.1,98,195.1l-0.1,0.1l-0.2,0.2c0,0,0,0,0,0l-6.8,9.9l-2.2,3.2l0,0"/>
			<path class="st3" d="M88.7,208.6L88.7,208.6L88.7,208.6L88.7,208.6l2.2-3.2l6.8-9.9c0,0,0,0,0,0l0.2-0.2l0,0c0,0,0,0,0,0
				c0,0,0,0,0,0c0,0,0,0,0,0l0,0"/>
			<line class="st3" x1="88.1" y1="210.1" x2="87.7" y2="210.3"/>
			<path class="st3" d="M87.6,210.4C87.6,210.4,87.5,210.4,87.6,210.4C87.5,210.4,87.5,210.4,87.6,210.4c-0.1,0-0.1,0-0.1,0
				L87.6,210.4"/>
			<path class="st1" d="M98,195.1C98,195.1,98,195.1,98,195.1c0,0.1,0,0.1-0.1,0.1c0,0,0,0,0,0c-0.7,1.3-4.7,9.1-7.8,13v0l0,0
				c-0.3,0.3-0.5,0.6-0.8,0.9c-0.1-0.1-0.1-0.2-0.2-0.2c-0.1-0.1-0.2-0.2-0.4-0.4l2.2-3.2l6.8-9.9c0,0,0,0,0,0l0.2-0.2L98,195.1
				C97.9,195.1,97.9,195.1,98,195.1C97.9,195.1,98,195.1,98,195.1C98,195.1,98,195.1,98,195.1L98,195.1z"/>
			<path class="st1" d="M98,195C98,195,98,195,98,195c-0.1,0-3.3,0.9-5.5,1.6c-0.2,0.1-0.5,0.2-0.7,0.2c-1.2,0.4-1.9,0.8-0.9,0.8
				c0.4,0,0.7-0.2,1.1-0.5c0.1-0.1,0.3-0.3,0.5-0.5c1.5-1.9,2.8-6,3.4-8.4c0.1-0.2,0.1-0.3,0.1-0.5c0.2-0.6,0.3-1,0.3-1.2
				c0,0,0,0,0,0c0,0,0,0,0,0c0,0,0,0,0,0l0,0L98,195z"/>
			<ellipse class="st2" cx="100.9" cy="149.1" rx="9.9" ry="11.4"/>
			<path class="st2" d="M208.8,153.7v15c0,24.1-20.3,44.2-46.1,46.8c-1.9,0.2-3.8,0.3-5.7,0.3c-10.2,0-19.8-2.7-27.9-7.4
				c-14.4-8.4-24-23-24-39.6v-15c0-1.1,0.1-2.3,0.1-3.4c0-0.7,0.1-1.4,0.2-2.1c0,0,0-0.1,0-0.1c0.1-0.8,0.2-1.6,0.4-2.3
				c0-0.2,0.1-0.4,0.1-0.6c0-0.1,0.1-0.3,0.1-0.4c4.6-21.7,25.7-38.2,50.9-38.2c1.9,0,3.9,0.1,5.7,0.3c12,1.2,22.8,6.2,30.9,13.5
				c5.4,4.9,9.6,10.9,12.3,17.5c0.2,0.5,0.4,1,0.5,1.5c0.6,1.6,1,3.2,1.4,4.8c0,0.1,0,0.1,0,0.2c0,0,0,0,0,0.1
				C208.5,147.5,208.8,150.5,208.8,153.7z"/>
			<ellipse class="st4" cx="110.8" cy="177" rx="12.7" ry="15.9"/>
			<circle class="st5" cx="154" cy="174.6" r="2.1"/>
			<circle class="st5" cx="161.2" cy="174.6" r="2.1"/>
			<path class="st6" d="M184.3,116c0.6,0.3,0.9,0.5,1,0.8C185.4,117.5,185,117.1,184.3,116z"/>
			<path class="st2" d="M217.4,148.8c0,2.6-0.8,5.1-2.1,7c-0.8,1.2-1.9,2.2-3.1,3c-1,0.7-2.2,1.1-3.4,1.3c-0.2,0.1-0.5,0.1-0.7,0.1
				c-0.2,0-0.4,0-0.6,0c-0.7,0-1.3-0.1-1.9-0.2c-0.6-0.1-1.2-0.3-1.7-0.6c-0.5-0.2-1-0.5-1.5-0.9c-0.5-0.4-1-0.8-1.5-1.3
				c-0.3-0.3-0.6-0.6-0.8-0.9c-0.7-0.9-1.3-1.9-1.7-3c-0.5-1.4-0.8-2.9-0.8-4.5c0-0.8,0.1-1.6,0.2-2.4c0.6-3,2.1-5.5,4.2-7.1
				c1.1-0.8,2.3-1.4,3.7-1.7c0.2,0,0.4-0.1,0.6-0.1c0.2,0,0.3,0,0.5-0.1c0.1,0,0.2,0,0.3,0c0.2,0,0.3,0,0.5,0c0.1,0,0.2,0,0.3,0
				c0.7,0,1.3,0.1,1.9,0.3C214.1,138.9,217.4,143.4,217.4,148.8z"/>
			<path class="st1" d="M184.3,116l4.7,16.5l1.9-6.5c0,0,3,9.3,3,11.5s3.6-5.1,3.6-5.1v10.5l4.5-5.4v19.2c0,0,8.3-20.9,5.4-25.5
				c0,0-12.5-23.3-22.2-24.4c0,0-17.2-8.4-27.7-7.9l-56.7,68.6l8.3-10.2l6-11.1l8.1-5.5l12.6-5.2l12.1-3.7l15.4-4.4l12.7-5.5
				L184.3,116z"/>
			<ellipse class="st4" cx="196.1" cy="176.4" rx="12.7" ry="15.9"/>
			<path class="st1" d="M212.1,190.6l-2.6-5.1l1.1,13.8l0.7,9.1c-0.8-0.4-1.4-1.1-2-2c-1-1.5-1.8-3.7-2.4-6.3
				c-0.9-4.1-1.4-9.2-1.7-14.5c-0.1-2.7-0.2-5.5-0.2-8.2c0-6.9,0.2-13.3,0.5-17.5c0.2-3,0.3-4.8,0.3-4.8l-0.6-2
				c0.2,0.9-0.5,3.5-1.5,6.2c-0.3,0.9-0.7,1.8-1,2.7c-0.9,2.5-1.8,4.4-1.8,4.4c-1.2-0.2-1.3-4.6-1.1-8.8c0-0.5,0.1-0.9,0.1-1.4
				c0.1-1.2,0.2-2.4,0.3-3.5c0.2-1.8,0.3-3.1,0.3-3.1l0.2-4.2c-0.1,2.3-1.3,5.4-2.5,7.8c-0.9,1.8-1.6,3.1-1.8,3.5
				c0.2-0.6,0.3-1.6,0.2-3c-0.2-4.7-1.6-12.9-2.3-16.2c-0.2-1-0.3-1.5-0.3-1.5l-0.3,1.3l-1.7,8.3c-2.7-1.8-3.9-10.6-4.4-17.2
				c-0.3-4.1-0.4-7.3-0.4-7.3l-2-0.9l-4.5-2l-5.2-2.3h-29l-3.4,0.8l-0.9,0.2l-10.4,2.4l-10.8,3l-6.1,14.9l-1.4,3.5l-0.2,0.7
				l-0.2,0.6l-0.3,1.2l-0.5,1.6l-1,3.7l-0.5,1.6l-1.9,6.8l-1.3,1.7l-0.7,0.9l-2.1,2.9l-10.5,14.1c-2.2-4-0.9-10.8,1.2-17
				c0.1-0.2,0.2-0.5,0.2-0.7c2.5-7.2,6-13.5,6.3-14.1c0,0,0,0,0,0c0.2-0.6,0.3-1.2,0.5-1.8c0.5-2,0.7-3.6,0.7-5c0-0.7,0-1.3-0.1-1.9
				c-0.3-2.2-1.2-3.3-1.8-3.8c-0.3-0.3-0.6-0.4-0.6-0.4c-2.3,1.5-4.6,2.6-6.6,3.5c-2.8,1.3-5,2-5.4,2.1l-0.1,0
				c0-0.9,0.2-1.8,0.6-2.7c0,0,0,0,0,0c3.4-9.1,20.9-21.3,20.9-21.3l0.5-0.5c0,0,0,0,0,0v0c0,0,0,0,0,0c0,0-0.1,0-0.1,0.1
				c0,0-0.1,0.1-0.1,0.1c-0.1,0-0.2,0.1-0.3,0.2c-2.8,1.4-15.2,7-15.2,7l3.2-4.6c5.3-9.4,19.5-16.1,19.5-16.1c0-0.7,7.3-1.7,7.3-1.7
				c-1.3,0-3.8-1.4-3.8-1.4c3.6-1,14.8,0.2,14.8,0.2c-1.8-0.3-4.2-1.8-4.2-1.8c2,0,21.1,2.4,21.1,2.4c-1.8-1.3-1.4-3.1-2.3-4
				c-0.6-0.6,5.3,2.8,9.2,5.2c1.9,1.2,3.4,2,3.4,2l-1.2-1.8l-0.9-1.3c7.9-1.4,15.2,4.2,17.2,5.8c-3-2.7-2.6-4.6-2.6-4.6l12.7,8.5
				c0.7,0.6,1.4,1.2,2.1,1.8c3,2.6,5.6,5.3,7.8,8c0,0,0.1,0.1,0.1,0.1c2.7,3.3,4.9,6.6,6.6,9.8c0,0,0,0,0,0.1c1.1,2,2.1,4,2.9,6
				c0.7,1.6,1.2,3.2,1.7,4.7c2.2,7,2.7,12.9,2.6,16.5c0,2.4-0.2,3.8-0.2,3.8l0.1,0.7l1.2,15.8l-2-7l-0.6,7.5L212.1,190.6z"/>
			<path class="st1" d="M106.8,139.8l-8.5,18.7l-4.2,2l3.6-11.4l-6.8,6.8l2.6-6.8l1-7l-5.7,4.1l5.5-10.6l-5.5,2.1
				c1.3-12.8,22-24.5,22-24.5L106.8,139.8z"/>
			<line class="st3" x1="94.1" y1="160.5" x2="91" y2="178.3"/>
			<path class="st7" d="M135.8,211.6"/>
			<line class="st3" x1="88.1" y1="210.1" x2="87.7" y2="210.3"/>
			<path class="st3" d="M87.6,210.4C87.6,210.4,87.5,210.4,87.6,210.4C87.5,210.4,87.5,210.4,87.6,210.4L87.6,210.4"/>
			<path class="st1" d="M101.4,203.7c-0.3,0.9-1.2,1.7-2.2,2.5c-0.6,0.4-1.4,0.8-2.1,1.2c-2.3,1.1-5.1,1.9-7,2.4
				c-0.1-0.1-0.2-0.2-0.3-0.3l-0.4-0.4c-0.1-0.1-0.1-0.2-0.2-0.2c-0.1-0.1-0.2-0.2-0.4-0.4c-0.1-0.1-0.3-0.3-0.4-0.4l4-10.7l0.3-0.9
				l0.1-0.3l0.7-2c0,0,0,0,0,0l2.9-7.6l0,0l0-0.1h0c0,0,0,0,0,0c0,0,0,0,0,0c0,0,0,0,0,0c0,0,0,0,0,0c0,0,0,0,0,0l4.5,15.8
				L101.4,203.7z"/>
			<polyline class="st3" points="88.7,208.6 88.7,208.6 88.7,208.6 			"/>
			<path class="st3" d="M87.5,210.3l-0.1,0.1C87.4,210.4,87.5,210.4,87.5,210.3C87.5,210.4,87.5,210.4,87.5,210.3
				C87.5,210.4,87.6,210.4,87.5,210.3c0.1,0.1,0.1,0.1,0.1,0c0,0,0,0,0.1,0"/>
			<path class="st1" d="M89.1,208.9c0.4-0.5,0.8-1.1,1.3-1.8c2.8-4,6.7-10.5,7.5-11.9c0,0,0,0,0,0c0,0,0,0,0-0.1c0,0,0,0,0,0
				c0,0,0-0.1,0-0.1c0,0,0,0,0-0.1c0,0,0,0,0,0c0,0,0,0,0,0c0,0,0,0,0,0c0,0,0,0,0,0c0,0,0,0,0,0h0c0,0,0,0.1,0,0.1h0c0,0,0,0,0,0
				c0,0,0,0,0,0.1c0,0,0,0,0,0c-0.1,0.1-0.1,0.1-0.2,0.2c-0.9,1-2.8,1.6-4.4,1.9c-1.3,0.2-2.3,0.3-2.3,0.3c0.3-0.2,0.6-0.5,0.9-0.8
				c1.8-2,3.2-5.9,4-8.3c0,0,0,0,0,0c0-0.1,0.1-0.2,0.1-0.3c0.1-0.2,0.1-0.3,0.1-0.5c0.1-0.1,0.1-0.3,0.1-0.4
				c0.1-0.4,0.2-0.7,0.2-0.8c0,0,0,0,0,0c0,0,0,0,0,0c0,0,0,0,0,0c0,0,0,0,0,0c0,0,0,0,0,0L98,195c0,0,0,0,0,0L89.1,208.9z"/>
			<path class="st1" d="M87.5,224.7h0.1C87.5,224.7,87.5,224.7,87.5,224.7L87.5,224.7z"/>
			<path class="st1" d="M110.8,204.3l-0.7,1.5l-5,11.6c-0.5,1.2-1.1,2.3-1.9,3.2h0c0,0,0,0,0,0l-0.5-0.4c-1.5-1-3-2-4.4-3.1
				c-1-0.7-1.9-1.5-2.8-2.3c-0.2-0.2-0.4-0.3-0.6-0.5c1-2.4,1.7-4.8,2.2-6.9c0.1-0.3,0.1-0.6,0.2-0.8c0.7-2.9,0.9-5,0.9-5l2.9,0.6
				l8.8,1.9L110.8,204.3z"/>
			<path class="st1" d="M145.3,117.2l-33.3,33.3c-1.1,1.1-3,1.1-4.2,0l-10.1-10.1c-1.1-1.1-1.1-3,0-4.2l33.3-33.3
				c1.1-1.1,3-1.1,4.2,0l10.1,10.1C146.4,114.1,146.4,116,145.3,117.2z"/>
			<polygon class="st1" points="135.8,131.7 106.4,160.5 106.1,144.8 			"/>
			<path class="st1" d="M166.5,134.3v2.7c0,0,14.3-1.4,17.7,0C184.2,137,174.1,131.8,166.5,134.3z"/>
			<path class="st1" d="M166.5,134.3c0,0-2.8,1.3,0,2.7V134.3z"/>
			<path class="st1" d="M144.7,135v2.7c0,0-14.3-1.4-17.7,0C127,137.6,137.2,132.5,144.7,135z"/>
			<path class="st1" d="M144.7,135c0,0,2.8,1.3,0,2.7V135z"/>
			<path class="st2" d="M113.6,171.7l-0.3,2l0.7-0.7C114,173.1,114,171.3,113.6,171.7z"/>
			<path class="st1" d="M125.2,230.9c0.9,0.3,1.8,0.5,2.7,0.8c0.5-0.7,1-1.6,1.2-2.6c0-0.1,0.1-0.3,0.1-0.4c0-0.1,0.1-0.3,0.1-0.4
				c0.2-1,0.1-2.2-0.1-3.5c0,0-11.6-9.6-14.6-0.8c0,0,0.2,0.9,0.5,2.2c0.1,0.3,0.1,0.7,0.2,1c1.2,0.6,2.5,1.1,3.8,1.6
				c0.2-1.4,0.1-3-0.7-5c0.2,0.2,2.5,3,3.9,6.2v0c0.7,0.2,1.4,0.5,2.1,0.7v0L125.2,230.9z"/>
			<path class="st1" d="M125.2,230.9c1.1-0.4,2.9-1.4,2.8-2.6c0,0,0,0,0-0.1h-0.1l-5.9,0.2c0,0,2,0.7,2.4,2.2v0L125.2,230.9z"/>
			<path class="st1" d="M127.8,227.9c0,0,0.2,0.1,0.4,0.3l-0.3,0C127.9,228.1,127.9,228,127.8,227.9z"/>
			<path class="st1" d="M137.3,229.3c-0.2,2.4-1.5,3.4-2.9,3.8l-4.1-0.8l-0.2,0c0.7-1-0.2-2.3-1-3.2c-0.2-0.2-0.3-0.3-0.5-0.5
				c-0.1-0.1-0.3-0.2-0.4-0.3l1.1,0l8.1-0.3C137.4,228.4,137.4,228.8,137.3,229.3z"/>
			<path class="st1" d="M105.1,162.5c0,0-1.4,19,7.9,30.9l-9.8,2.3L96,176.4l2-8L105.1,162.5z"/>
			<path class="st8" d="M139.6,191.2c0,0,22.3,7.6,36.9-2.7C176.4,188.6,159.7,209,139.6,191.2z"/>
		</g>
		<path class="st9" d="M140.3,163.1h-3.4c-2.8,0-5.2-2.3-5.2-5.2v-7.4c0-2.8,2.3-5.2,5.2-5.2h3.4c2.8,0,5.2,2.3,5.2,5.2v7.4
			C145.5,160.8,143.2,163.1,140.3,163.1z"/>
		<path class="st10" d="M141.8,151.9h-0.7c-1.3,0-2.4-1.1-2.4-2.4v-0.7c0-1.3,1.1-2.4,2.4-2.4h0.7c1.3,0,2.4,1.1,2.4,2.4v0.7
			C144.2,150.8,143.1,151.9,141.8,151.9z"/>
		<circle class="st11" cx="175" cy="153.9" r="17.6"/>
		<circle class="st12" cx="135.2" cy="154.9" r="17.6"/>
		<circle class="st12" cx="174.7" cy="154" r="17.6"/>
		<line class="st12" x1="192" y1="149.5" x2="207.7" y2="141.3"/>
		<line class="st12" x1="118.4" y1="150.7" x2="103.8" y2="143"/>
		<circle class="st11" cx="135.1" cy="154.8" r="17.6"/>
		<path class="st9" d="M174.8,162.6h-3.4c-2.8,0-5.2-2.3-5.2-5.2V150c0-2.8,2.3-5.2,5.2-5.2h3.4c2.8,0,5.2,2.3,5.2,5.2v7.4
			C180,160.2,177.7,162.6,174.8,162.6z"/>
		<path class="st10" d="M176.2,151.4h-0.7c-1.3,0-2.4-1.1-2.4-2.4v-0.7c0-1.3,1.1-2.4,2.4-2.4h0.7c1.3,0,2.4,1.1,2.4,2.4v0.7
			C178.7,150.3,177.6,151.4,176.2,151.4z"/>
		<line class="st12" x1="156.9" y1="152.8" x2="153.2" y2="152.8"/>
	</g>
	<path class="st2" d="M144.3,234.3c0,0,7.3,1.4,23.6-1.7L144.3,234.3z"/>
</g>
</svg>
