<svg xmlns="http://www.w3.org/2000/svg" width="58.134" height="41.717" viewBox="0 0 58.134 41.717">
  <g id="clothing-hanger-svgrepo-com" transform="translate(0 -61.712)">
    <path id="Path_75" data-name="Path 75" d="M55.369,92.295,31.331,77.239V76.108a1.989,1.989,0,0,1,1.079-1.692c.091-.061.2-.125.317-.2a6.342,6.342,0,0,0,3.6-5.561,7.182,7.182,0,0,0-5.651-6.734,7.47,7.47,0,0,0-9.417,7.492c-.008.169-.012.532-.016.887,0,.49.962.888,2.156.888h.432c1.194,0,2.163-.4,2.166-.885,0-.4,0-.811.008-.888.066-1.608.5-2.554,2.14-2.886a3.174,3.174,0,0,1,2.768.713,1.64,1.64,0,0,1,.4,1.292,1.9,1.9,0,0,1-.817,1.422l-2.06,1.4a3.624,3.624,0,0,0-1.873,3.365v2.518l-23.8,15A5.989,5.989,0,0,0,.279,99.212c.282.989,1.566,4.217,6.239,4.217h45.4a6.064,6.064,0,0,0,6-4.277A6.18,6.18,0,0,0,55.369,92.295Zm-2.443,5.24a1.12,1.12,0,0,1-1.081.827H6.46a1.12,1.12,0,0,1-1.1-.768,1.079,1.079,0,0,1,.47-1.22l23.261-14.56,23.39,14.621A.934.934,0,0,1,52.927,97.534Z" transform="translate(0)" fill="#fff"/>
  </g>
</svg>
