<svg xmlns="http://www.w3.org/2000/svg" width="44.47" height="52.772" viewBox="0 0 44.47 52.772">
  <g id="laundry-service-svgrepo-com" transform="translate(-31.797)">
    <circle id="Ellipse_7" data-name="Ellipse 7" cx="1.296" cy="1.296" r="1.296" transform="translate(34.709 6.426)" fill="#fff"/>
    <circle id="Ellipse_8" data-name="Ellipse 8" cx="1.296" cy="1.296" r="1.296" transform="translate(38.866 6.426)" fill="#fff"/>
    <circle id="Ellipse_9" data-name="Ellipse 9" cx="1.296" cy="1.296" r="1.296" transform="translate(62.45 6.426)" fill="#fff"/>
    <circle id="Ellipse_10" data-name="Ellipse 10" cx="1.296" cy="1.296" r="1.296" transform="translate(66.607 6.426)" fill="#fff"/>
    <circle id="Ellipse_11" data-name="Ellipse 11" cx="1.296" cy="1.296" r="1.296" transform="translate(70.764 6.426)" fill="#fff"/>
    <path id="Path_82" data-name="Path 82" d="M125.879,176.822a11.447,11.447,0,1,0-11.448-11.447A11.46,11.46,0,0,0,125.879,176.822Zm0-20.552a9.1,9.1,0,0,1,9.1,9.1c0,.067,0,.132-.005.2a2.4,2.4,0,0,1-1.671.635,2.593,2.593,0,0,1-1.9-.83,2.423,2.423,0,0,0-3.58,0,2.582,2.582,0,0,1-3.794,0,2.422,2.422,0,0,0-3.58,0,2.591,2.591,0,0,1-1.9.831,2.478,2.478,0,0,1-1.782-.73c0-.035,0-.069,0-.1A9.1,9.1,0,0,1,125.879,156.27Z" transform="translate(-71.847 -133.833)" fill="#fff"/>
    <path id="Path_83" data-name="Path 83" d="M31.8,121.448h44.47V78.988H31.8ZM54.032,86.16a14.058,14.058,0,1,1-14.058,14.058A14.074,14.074,0,0,1,54.032,86.16Z" transform="translate(0 -68.676)" fill="#fff"/>
    <rect id="Rectangle_77" data-name="Rectangle 77" width="44.47" height="4.569" transform="translate(31.797)" fill="#fff"/>
  </g>
</svg>
