<?xml version="1.0" encoding="utf-8"?>
<!-- Generator: Adobe Illustrator 24.0.1, SVG Export Plug-In . SVG Version: 6.00 Build 0)  -->
<svg version="1.1" id="Laag_1" xmlns="http://www.w3.org/2000/svg" xmlns:xlink="http://www.w3.org/1999/xlink" x="0px" y="0px"
	 viewBox="0 0 300 300" style="enable-background:new 0 0 300 300;" xml:space="preserve">
<style type="text/css">
	.st0{fill:#6B6969;}
	.st1{fill:#FFFFFF;}
	.st2{fill:#8D8E8D;}
	.st3{fill:#2EAC63;}
</style>
<g>
	<path class="st0" d="M234.9,283.2H68.7c-1.6,0-2.8-1.3-2.8-2.8V55.7c0-1.6,1.3-2.8,2.8-2.8h166.2c1.6,0,2.8,1.3,2.8,2.8v224.6
		C237.7,281.9,236.4,283.2,234.9,283.2z"/>
	<path class="st1" d="M225.6,272.1H79.3c-1.6,0-2.8-1.3-2.8-2.8V65.6c0-1.6,1.3-2.8,2.8-2.8h146.4c1.6,0,2.8,1.3,2.8,2.8v203.7
		C228.5,270.8,227.2,272.1,225.6,272.1z"/>
	<path class="st2" d="M188.4,68.1h-75c-1,0-1.7-0.8-1.7-1.7V46.9c0-1,0.8-1.7,1.7-1.7h75c1,0,1.7,0.8,1.7,1.7v19.5
		C190.2,67.4,189.4,68.1,188.4,68.1z"/>
	<path class="st2" d="M151,14.7c-24.6,2.4-7.7,31-7.7,31h15.4C158.7,45.7,175.5,17.1,151,14.7z M150.8,32.2c-2.4,0-4.4-2-4.4-4.4
		c0-2.4,2-4.4,4.4-4.4c2.4,0,4.4,2,4.4,4.4C155.2,30.3,153.3,32.2,150.8,32.2z"/>
	<g>
		<path class="st1" d="M99.8,113.6l-6.7-9.2c-0.1-0.1-0.1-0.3,0.1-0.4l2.9-2.1c0.1-0.1,0.3-0.1,0.4,0.1l6.7,9.2
			c0.1,0.1,0.1,0.3-0.1,0.4l-2.9,2.1C100.1,113.8,99.9,113.8,99.8,113.6z"/>
		<path class="st1" d="M97.8,110.8l15.7-15.7c0.1-0.1,0.3-0.1,0.4,0l2.5,2.5c0.1,0.1,0.1,0.3,0,0.4l-15.7,15.7
			c-0.1,0.1-0.3,0.1-0.4,0l-2.5-2.5C97.7,111.1,97.7,110.9,97.8,110.8z"/>
	</g>
	<g>
		<path class="st1" d="M97.2,234.9l-6.7-9.2c-0.1-0.1-0.1-0.3,0.1-0.4l2.9-2.1c0.1-0.1,0.3-0.1,0.4,0.1l6.7,9.2
			c0.1,0.1,0.1,0.3-0.1,0.4l-2.9,2.1C97.5,235.1,97.3,235,97.2,234.9z"/>
		<path class="st1" d="M95.2,232.1l15.7-15.7c0.1-0.1,0.3-0.1,0.4,0l2.5,2.5c0.1,0.1,0.1,0.3,0,0.4l-15.7,15.7
			c-0.1,0.1-0.3,0.1-0.4,0l-2.5-2.5C95.1,232.4,95.1,232.2,95.2,232.1z"/>
	</g>
	
		<rect x="101.4" y="111.4" transform="matrix(0.6369 -0.771 0.771 0.6369 -55.2427 124.0445)" class="st3" width="5.4" height="18.4"/>
	
		<rect x="116.1" y="95.5" transform="matrix(0.7692 0.639 -0.639 0.7692 99.8376 -49.7809)" class="st3" width="5.4" height="35.7"/>
	
		<rect x="101.5" y="152.3" transform="matrix(0.6369 -0.771 0.771 0.6369 -86.7305 138.9926)" class="st3" width="5.4" height="18.4"/>
	
		<rect x="116.2" y="136.4" transform="matrix(0.7692 0.639 -0.639 0.7692 126.0041 -40.4195)" class="st3" width="5.4" height="35.7"/>
	<rect x="143.7" y="90.5" class="st0" width="22" height="4.7"/>
	<rect x="170.1" y="90.6" class="st0" width="48.8" height="4.7"/>
	<rect x="143.7" y="104.2" class="st0" width="12.7" height="4.7"/>
	<rect x="199.3" y="104.2" class="st0" width="19.6" height="4.7"/>
	<rect x="161" y="104.4" class="st0" width="34" height="4.7"/>
	
		<rect x="196.5" y="127.4" transform="matrix(-1 -1.224647e-16 1.224647e-16 -1 415.0659 259.4155)" class="st0" width="22" height="4.7"/>
	
		<rect x="143.3" y="127.3" transform="matrix(-1 -1.224647e-16 1.224647e-16 -1 335.4575 259.2797)" class="st0" width="48.8" height="4.7"/>
	
		<rect x="205.9" y="116.7" transform="matrix(-1 -1.224647e-16 1.224647e-16 -1 424.4624 238.1111)" class="st0" width="12.7" height="4.7"/>
	
		<rect x="143.4" y="116.6" transform="matrix(-1 -1.224647e-16 1.224647e-16 -1 306.3932 237.9753)" class="st0" width="19.6" height="4.7"/>
	
		<rect x="167.2" y="116.4" transform="matrix(-1 -1.224647e-16 1.224647e-16 -1 368.4706 237.5746)" class="st0" width="34" height="4.7"/>
	<rect x="143.3" y="137.3" class="st0" width="22" height="4.7"/>
	<rect x="169.7" y="137.4" class="st0" width="48.8" height="4.7"/>
	<rect x="143.2" y="149" class="st0" width="12.7" height="4.7"/>
	<rect x="198.8" y="149" class="st0" width="19.6" height="4.7"/>
	<rect x="160.6" y="149.2" class="st0" width="34" height="4.7"/>
</g>
</svg>
