<?xml version="1.0" encoding="utf-8"?>
<!-- Generator: Adobe Illustrator 24.0.1, SVG Export Plug-In . SVG Version: 6.00 Build 0)  -->
<svg version="1.1" id="Laag_1" xmlns="http://www.w3.org/2000/svg" xmlns:xlink="http://www.w3.org/1999/xlink" x="0px" y="0px"
	 viewBox="0 0 300 300" style="enable-background:new 0 0 300 300;" xml:space="preserve">
<style type="text/css">
	.st0{fill:#CFCECE;}
	.st1{fill:#5F4736;}
	.st2{fill:#F0C9B7;}
	.st3{opacity:6.000000e-02;fill:#E6007E;}
	.st4{fill:#1F3D25;}
	.st5{opacity:0.26;fill:#D2907C;}
	.st6{fill:#D4B9A3;}
	.st7{fill:#A7414B;}
	.st8{fill:#F9F9FA;}
	.st9{fill:none;}
	.st10{fill:#261B14;}
	.st11{fill:none;stroke:#E0BBAD;stroke-miterlimit:10;}
	.st12{fill:none;stroke:#E9C6BB;stroke-miterlimit:10;}
	.st13{fill:#6B441B;}
</style>
<g>
	<path class="st0" d="M234.5,149.9c0,22.6-8.8,43.1-23.2,58.3c-12,12.7-27.9,21.6-45.7,25c-5.1,1-10.4,1.5-15.8,1.5
		c-2.5,0-4.9-0.1-7.4-0.3c-16.5-1.4-31.7-7.6-44.2-17.2C78,201.7,65,177.3,65,149.9c0-46.8,38-84.8,84.8-84.8S234.5,103,234.5,149.9
		z"/>
	<g id="melissa_1_">
		<path class="st1" d="M165.6,233.1c17.9-3.4,33.7-12.3,45.7-25c1.1-15.2,1.4-33.7-0.5-51.4c-0.7-6.5-1.7-12.9-3.1-19.1
			c-6.2-27.1-19.9-48.7-48.1-48.2c0,0-2.1-0.6-5.6-1.2c-15-2.3-55.4-3.1-62,53.6c0,0,0,0,0,0c-0.4,3.7-0.7,7.7-0.8,11.9
			c-0.2,4.9-0.1,10.2,0.2,15.8v0c0.8,13.6,2.9,29.3,6.9,47.6c12.4,9.6,27.6,15.7,44.2,17.2L165.6,233.1z"/>
		<polygon class="st2" points="142.4,234.3 142.4,212.5 142.4,209.8 165.6,209.8 165.6,212.8 165.6,233.1 		"/>
		<ellipse class="st2" cx="99.8" cy="148.5" rx="9.7" ry="11.2"/>
		<path class="st2" d="M205.9,152.9v14.7c0,23.7-19.9,43.4-45.4,46c-1.8,0.2-3.7,0.3-5.6,0.3c-10.1,0-19.5-2.7-27.4-7.3
			c-14.1-8.3-23.6-22.6-23.6-38.9v-14.7c0-1.1,0.1-2.2,0.1-3.3c0-0.7,0.1-1.4,0.2-2.1c0,0,0-0.1,0-0.1c0.1-0.8,0.2-1.5,0.3-2.3
			c0-0.2,0.1-0.4,0.1-0.6c0-0.1,0.1-0.3,0.1-0.4c4.5-21.3,25.3-37.5,50-37.5c1.9,0,3.8,0.1,5.6,0.3c11.8,1.2,22.4,6.1,30.4,13.3
			c5.3,4.8,9.5,10.7,12,17.2c0.2,0.5,0.4,1,0.5,1.4c0.6,1.6,1,3.1,1.4,4.7c0,0.1,0,0.1,0,0.2c0,0,0,0,0,0.1
			C205.5,146.8,205.9,149.9,205.9,152.9z"/>
		<ellipse class="st3" cx="109.5" cy="175.9" rx="12.5" ry="15.7"/>
		<path class="st4" d="M136.2,159.3H132c-2.9,0-5.3-2.4-5.3-5.3v-8.5c0-2.9,2.4-5.3,5.3-5.3h4.2c2.9,0,5.3,2.4,5.3,5.3v8.5
			C141.5,157,139.1,159.3,136.2,159.3z"/>
		<circle class="st5" cx="151.9" cy="173.5" r="2.1"/>
		<circle class="st5" cx="159.1" cy="173.5" r="2.1"/>
		<path class="st6" d="M181.8,115.9c0.6,0.3,0.9,0.5,1,0.8C182.8,117.4,182.4,117,181.8,115.9z"/>
		<path class="st2" d="M214.3,148.2c0,2.6-0.8,5-2.1,6.9c-0.4,0.6-0.9,1.1-1.4,1.6c-0.5,0.5-1.1,0.9-1.7,1.3c-1,0.7-2.1,1.1-3.3,1.2
			h0c-0.2,0.1-0.5,0.1-0.7,0.1c-0.2,0-0.4,0-0.6,0c-0.6,0-1.3-0.1-1.9-0.2c-0.6-0.1-1.2-0.3-1.7-0.6c-0.5-0.2-1-0.5-1.5-0.8
			c-0.5-0.4-1-0.8-1.5-1.2c-0.3-0.3-0.5-0.6-0.8-0.9c-0.7-0.9-1.2-1.9-1.7-2.9c-0.5-1.4-0.8-2.8-0.8-4.4c0-0.4,0-0.7,0-1
			c0-0.4,0.1-0.9,0.2-1.3c0.6-2.9,2.1-5.4,4.2-7c1.1-0.8,2.3-1.4,3.6-1.7c0.2,0,0.4-0.1,0.6-0.1c0,0,0.1,0,0.1,0c0.1,0,0.3,0,0.4,0
			c0.1,0,0.2,0,0.3,0c0.2,0,0.3,0,0.4,0c0.1,0,0.2,0,0.3,0c0.7,0,1.3,0.1,1.9,0.3c0.3,0.1,0.7,0.2,1,0.3
			C211.5,139.1,214.3,143.3,214.3,148.2z"/>
		<path class="st7" d="M141.9,191c0,0,16,8.6,27.4,0C169.2,191,155.8,208.9,141.9,191z"/>
		<path class="st8" d="M138,147.3h-1.7c-1.2,0-2.1-1-2.1-2.1v-1.7c0-1.2,1-2.1,2.1-2.1h1.7c1.2,0,2.1,1,2.1,2.1v1.7
			C140.1,146.4,139.1,147.3,138,147.3z"/>
		<ellipse class="st3" cx="193.3" cy="175.3" rx="12.5" ry="15.7"/>
		<path class="st4" d="M172.5,159.3h-4.2c-2.9,0-5.3-2.4-5.3-5.3v-8.5c0-2.9,2.4-5.3,5.3-5.3h4.2c2.9,0,5.3,2.4,5.3,5.3v8.5
			C177.8,157,175.4,159.3,172.5,159.3z"/>
		<path class="st8" d="M174.3,147.3h-1.7c-1.2,0-2.1-1-2.1-2.1v-1.7c0-1.2,1-2.1,2.1-2.1h1.7c1.2,0,2.1,1,2.1,2.1v1.7
			C176.4,146.4,175.4,147.3,174.3,147.3z"/>
		<line class="st9" x1="93.1" y1="159.7" x2="90" y2="177.2"/>
		<path class="st10" d="M134.1,209.8"/>
		<path class="st10" d="M164.2,133.9v2.6c0,0,14.1-1.3,17.4,0C181.6,136.5,171.7,131.5,164.2,133.9z"/>
		<path class="st10" d="M164.2,133.9c0,0-2.7,1.3,0,2.6V133.9z"/>
		<path class="st10" d="M142.9,134.6v2.6c0,0-14.1-1.3-17.4,0C125.5,137.2,135.4,132.1,142.9,134.6z"/>
		<path class="st10" d="M142.9,134.6c0,0,2.7,1.3,0,2.6V134.6z"/>
		<path class="st2" d="M112.2,166.7l-0.3,2l0.7-0.7C112.6,168,112.6,166.3,112.2,166.7z"/>
		<path class="st2" d="M112.7,154.7l-2.3,0.1l1.8,1.6C112.2,156.4,113.7,155.5,112.7,154.7z"/>
		<path class="st1" d="M154.9,106.7c0,0-56.5,52.7-51,60.9C103.9,167.6,97.6,97.2,154.9,106.7z"/>
		<path class="st1" d="M203.4,156.1c0,0-52.7-56.5-60.9-51C142.5,105.2,212.9,98.9,203.4,156.1z"/>
		<path class="st11" d="M124.4,158.1c0,0,6.7,5.7,16.9,2.2"/>
		<path class="st11" d="M161.7,159.3c0,0,7.1,5.2,17,0.9"/>
		<path class="st12" d="M145.3,122.1c0,0,7.4,4.8,17.1,0"/>
		<path class="st12" d="M145.3,127.5c0,0,7.4,4.8,17.1,0"/>
	</g>
	<path class="st2" d="M142.4,234.3c0,0,8.2,1.4,23.2-1.1l-9-4.9L142.4,234.3z"/>
</g>
<path class="st13" d="M141.9,191"/>
</svg>
