<?xml version="1.0" encoding="utf-8"?>
<!-- Generator: Adobe Illustrator 24.0.1, SVG Export Plug-In . SVG Version: 6.00 Build 0)  -->
<svg version="1.1" id="Laag_1" xmlns="http://www.w3.org/2000/svg" xmlns:xlink="http://www.w3.org/1999/xlink" x="0px" y="0px"
	 viewBox="0 0 150 300" style="enable-background:new 0 0 150 300;" xml:space="preserve">
<style type="text/css">
	.st0{fill:#FFFFFF;}
	.st1{fill:none;stroke:#5986C5;stroke-width:0.25;stroke-miterlimit:10;}
	.st2{fill:#5986C5;}
	.st3{fill:#FFFFFF;stroke:#5986C5;stroke-width:0.5;stroke-miterlimit:10;}
	.st4{fill:none;}
	.st5{font-family:'MyriadPro-Regular';}
	.st6{font-size:6px;}
	.st7{fill:#303031;}
	.st8{font-family:'Montserrat-Regular';}
	.st9{font-size:4px;}
</style>
<g>
	<g>
		<g id="ifunny_5_">
			<path d="M142.2,65.8l-3.7,0c-0.6,0-1-0.4-1-1l-0.1-26.4c0-0.6,0.4-1,1-1l3.7,0c0.6,0,1,0.4,1,1l0.1,26.4
				C143.2,65.3,142.7,65.8,142.2,65.8z"/>
			<path d="M128,291.9l-105.5,0.2c-7.3,0-13.3-6-13.3-13.3L8.6,28.7c0-7.3,6-13.3,13.3-13.3l105.5-0.2c7.3,0,13.3,6,13.3,13.3
				l0.6,250.1C141.3,285.9,135.3,291.9,128,291.9z"/>
			<path class="st0" d="M127.5,281.2l-105.2,0.2c-1.6,0-2.8-1.3-2.8-2.8L18.9,30.8c0-1.6,1.3-2.8,2.8-2.8l105.2-0.2
				c1.6,0,2.8,1.3,2.8,2.8l0.6,247.8C130.3,279.9,129.1,281.2,127.5,281.2z"/>
			<path d="M11.4,82.4l-3.7,0c-0.6,0-1-0.4-1-1l0-14.1c0-0.6,0.4-1,1-1l3.7,0c0.6,0,1,0.4,1,1l0,14.1C12.4,82,11.9,82.4,11.4,82.4z"
				/>
			<path d="M10.8,104.8l-3.7,0c-0.6,0-1-0.4-1-1l0-14.1c0-0.6,0.4-1,1-1l3.7,0c0.6,0,1,0.4,1,1l0,14.1
				C11.8,104.3,11.3,104.8,10.8,104.8z"/>
		</g>
	</g>
	<rect x="48.5" y="74.6" class="st1" width="0.2" height="153.1"/>
	<path class="st2" d="M119.8,105.5H64.4c-2.3,0-4.2-1.9-4.2-4.2v-3.6c0-2.3,1.9-4.2,4.2-4.2h55.4c2.3,0,4.2,1.9,4.2,4.2v3.6
		C124,103.6,122.1,105.5,119.8,105.5z"/>
	<path class="st3" d="M120,77.1H64.6c-2.3,0-4.2-1.9-4.2-4.2v-3.6c0-2.3,1.9-4.2,4.2-4.2H120c2.3,0,4.2,1.9,4.2,4.2v3.6
		C124.2,75.2,122.3,77.1,120,77.1z"/>
	<rect x="60" y="97" class="st4" width="62.5" height="7.8"/>
	<text transform="matrix(1 0 0 1 73.5177 101.2688)" class="st0 st5 st6">Take a shower</text>
	<rect x="60.2" y="68.6" class="st4" width="62.5" height="15.7"/>
	<text transform="matrix(1 0 0 1 70.707 72.8791)" class="st2 st5 st6">Brush your teeth</text>
	<path class="st2" d="M119.9,124.8H64.4c-2.3,0-4.2-1.9-4.2-4.2v-3.6c0-2.3,1.9-4.2,4.2-4.2h55.4c2.3,0,4.2,1.9,4.2,4.2v3.6
		C124,122.9,122.2,124.8,119.9,124.8z"/>
	<rect x="60" y="116.3" class="st4" width="62.5" height="7.8"/>
	<text transform="matrix(1 0 0 1 71.9315 120.529)" class="st0 st5 st6">Comb your hair</text>
	<path class="st2" d="M119.9,145H64.5c-2.3,0-4.2-1.9-4.2-4.2v-3.6c0-2.3,1.9-4.2,4.2-4.2h55.4c2.3,0,4.2,1.9,4.2,4.2v3.6
		C124.1,143.1,122.2,145,119.9,145z"/>
	<rect x="60.1" y="136.5" class="st4" width="62.5" height="7.8"/>
	<text transform="matrix(1 0 0 1 74.2266 140.7525)" class="st0 st5 st6">Make the bed</text>
	<path class="st2" d="M120,174.8H64.6c-2.3,0-4.2-1.9-4.2-4.2V167c0-2.3,1.9-4.2,4.2-4.2H120c2.3,0,4.2,1.9,4.2,4.2v3.6
		C124.2,172.9,122.3,174.8,120,174.8z"/>
	<rect x="60.2" y="166.3" class="st4" width="62.5" height="7.8"/>
	<text transform="matrix(1 0 0 1 68.083 170.5809)" class="st0 st5 st6">Ventilate the room</text>
	<path class="st2" d="M120.1,195.7H64.6c-2.3,0-4.2-1.9-4.2-4.2v-3.6c0-2.3,1.9-4.2,4.2-4.2h55.4c2.3,0,4.2,1.9,4.2,4.2v3.6
		C124.2,193.8,122.4,195.7,120.1,195.7z"/>
	<rect x="60.2" y="187.2" class="st4" width="62.5" height="7.8"/>
	<text transform="matrix(1 0 0 1 67.186 191.494)" class="st0 st5 st6">Use the dishwasher</text>
	<path d="M48.2,170.5"/>
	<g>
		<circle class="st2" cx="48.7" cy="189.5" r="2.9"/>
		<polygon class="st0" points="48.4,191.4 46.5,189.7 47.1,189 48.3,190 50.5,187.2 51.3,187.9 		"/>
	</g>
	<g>
		<circle class="st2" cx="48.6" cy="169" r="2.9"/>
		<polygon class="st0" points="48.2,170.9 46.3,169.1 47,168.4 48.1,169.5 50.4,166.7 51.1,167.3 		"/>
	</g>
	<g>
		<circle class="st2" cx="48.5" cy="139.8" r="2.9"/>
		<polygon class="st0" points="48.1,141.7 46.2,139.9 46.9,139.2 48,140.3 50.3,137.5 51,138.1 		"/>
	</g>
	<g>
		<circle class="st2" cx="48.6" cy="118.9" r="2.9"/>
		<polygon class="st0" points="48.3,120.7 46.4,119 47,118.3 48.2,119.3 50.4,116.6 51.2,117.2 		"/>
	</g>
	<g>
		<circle class="st2" cx="48.5" cy="99.3" r="2.9"/>
		<polygon class="st0" points="48.1,101.2 46.2,99.4 46.9,98.7 48,99.8 50.3,97 51,97.6 		"/>
	</g>
	<g>
		<circle class="st1" cx="48.7" cy="71.7" r="2.9"/>
		<polygon class="st1" points="48.3,73.6 46.4,71.8 47.1,71.1 48.2,72.1 50.5,69.4 51.3,70 		"/>
	</g>
	<g>
		<path class="st7" d="M27.5,48.6H26v-0.4h3.4v0.4h-1.5v3.8h-0.4V48.6z"/>
		<path class="st7" d="M29.4,50.9c0-0.9,0.7-1.6,1.6-1.6c0.9,0,1.6,0.7,1.6,1.6s-0.7,1.6-1.6,1.6C30,52.5,29.4,51.8,29.4,50.9z
			 M32.1,50.9c0-0.7-0.5-1.2-1.2-1.2s-1.2,0.5-1.2,1.2s0.5,1.2,1.2,1.2S32.1,51.6,32.1,50.9z"/>
		<path class="st7" d="M36.3,48v4.4h-0.4v-0.6c-0.3,0.4-0.7,0.7-1.2,0.7c-0.9,0-1.6-0.7-1.6-1.6s0.7-1.6,1.6-1.6
			c0.5,0,0.9,0.2,1.2,0.6V48H36.3z M35.9,50.9c0-0.7-0.5-1.2-1.2-1.2c-0.7,0-1.2,0.5-1.2,1.2s0.5,1.2,1.2,1.2
			C35.4,52.1,35.9,51.6,35.9,50.9z"/>
		<path class="st7" d="M39.9,50.5v2h-0.4V52c-0.2,0.3-0.6,0.5-1.1,0.5c-0.7,0-1.2-0.4-1.2-0.9c0-0.5,0.3-0.9,1.2-0.9h1v-0.2
			c0-0.5-0.3-0.8-0.9-0.8c-0.4,0-0.8,0.1-1,0.4l-0.2-0.3c0.3-0.3,0.8-0.4,1.3-0.4C39.4,49.3,39.9,49.7,39.9,50.5z M39.5,51.5V51h-1
			c-0.6,0-0.8,0.2-0.8,0.6c0,0.4,0.3,0.6,0.8,0.6C38.9,52.1,39.3,51.9,39.5,51.5z"/>
		<path class="st7" d="M43.6,49.3l-1.6,3.5c-0.3,0.6-0.6,0.8-1,0.8c-0.3,0-0.6-0.1-0.8-0.3l0.2-0.3c0.2,0.2,0.3,0.2,0.6,0.2
			c0.3,0,0.5-0.1,0.7-0.5l0.1-0.3l-1.4-3.1h0.4L42,52l1.2-2.7H43.6z"/>
	</g>
	<rect x="1.6" y="66.4" class="st4" width="60.6" height="5.4"/>
	<text transform="matrix(1 0 0 1 23.4138 70.8246)" class="st8 st6">08:00</text>
	<rect x="80.9" y="47.9" class="st4" width="60.6" height="20.1"/>
	<text transform="matrix(1 0 0 1 103.0153 52.3629)" class="st8 st6">08:03</text>
	<rect x="23.4" y="74.1" class="st4" width="17" height="4.6"/>
	<text transform="matrix(1 0 0 1 26.4033 77.0658)" class="st8 st9">08:03</text>
	<rect x="2.3" y="93.5" class="st4" width="60.6" height="5.4"/>
	<text transform="matrix(1 0 0 1 24.3893 97.9946)" class="st8 st6">08:30</text>
	<rect x="24" y="101.3" class="st4" width="17" height="4.6"/>
	<text transform="matrix(1 0 0 1 27.0809 104.2357)" class="st8 st9">08:50</text>
	<polygon class="st4" points="35.4,104.5 39.2,104.5 39.2,104.5 35.4,104.5 	"/>
	<rect x="1.3" y="113.1" class="st4" width="60.6" height="5.4"/>
	<text transform="matrix(1 0 0 1 23.1883 117.5331)" class="st8 st6">09:00</text>
	<rect x="23.1" y="120.8" class="st4" width="17" height="4.6"/>
	<text transform="matrix(1 0 0 1 26.1407 123.7742)" class="st8 st9">09:20</text>
	<rect x="2.1" y="133.2" class="st4" width="60.6" height="5.4"/>
	<text transform="matrix(1 0 0 1 24.2675 137.6355)" class="st8 st6">09:30</text>
	<rect x="23.8" y="140.9" class="st4" width="17" height="4.6"/>
	<text transform="matrix(1 0 0 1 26.9299 143.8767)" class="st8 st9">09:50</text>
	<rect x="1.9" y="163.1" class="st4" width="60.6" height="5.4"/>
	<text transform="matrix(1 0 0 1 24.5268 167.5663)" class="st8 st6">10:00</text>
	<rect x="23.6" y="170.8" class="st4" width="17" height="4.6"/>
	<text transform="matrix(1 0 0 1 27.2312 173.8074)" class="st8 st9">10:20</text>
	<rect x="1.8" y="183.9" class="st4" width="60.6" height="5.4"/>
	<text transform="matrix(1 0 0 1 24.7136 188.3089)" class="st8 st6">12:00</text>
	<rect x="23.6" y="191.6" class="st4" width="17" height="4.6"/>
	<text transform="matrix(1 0 0 1 27.7373 194.55)" class="st8 st9">11:20</text>
</g>
</svg>
