<?xml version="1.0" encoding="utf-8"?>
<!-- Generator: Adobe Illustrator 24.0.1, SVG Export Plug-In . SVG Version: 6.00 Build 0)  -->
<svg version="1.1" id="Laag_1" xmlns="http://www.w3.org/2000/svg" xmlns:xlink="http://www.w3.org/1999/xlink" x="0px" y="0px"
	 viewBox="0 0 150 300" style="enable-background:new 0 0 150 300;" xml:space="preserve">
<style type="text/css">
	.st0{fill:#58B8D9;}
	.st1{fill:#FFFFFF;}
	.st2{fill:#EDEFEF;}
	.st3{fill:#FFFFFF;stroke:#E5E4E4;stroke-width:0.5;stroke-miterlimit:10;}
	.st4{fill:#5986C5;}
	.st5{fill:#878B8B;}
	.st6{fill:#53ADC7;}
	.st7{fill:#6CBE99;}
</style>
<g>
	<g>
		<g>
			<g id="ifunny_8_">
				<path d="M142,61.7l-3.7,0c-0.6,0-1-0.4-1-1l-0.1-26.4c0-0.6,0.4-1,1-1l3.7,0c0.6,0,1,0.4,1,1l0.1,26.4
					C143,61.3,142.6,61.7,142,61.7z"/>
				<path d="M127.8,287.8l-105.5,0.2c-7.3,0-13.3-6-13.3-13.3L8.4,24.7c0-7.3,6-13.3,13.3-13.3l105.5-0.2c7.3,0,13.3,6,13.3,13.3
					l0.6,250.1C141.1,281.8,135.2,287.8,127.8,287.8z"/>
				<path class="st0" d="M127.3,277.2l-105.2,0.2c-1.6,0-2.8-1.3-2.8-2.8L18.7,26.8c0-1.6,1.3-2.8,2.8-2.8l105.2-0.2
					c1.6,0,2.8,1.3,2.8,2.8l0.6,247.8C130.2,275.9,128.9,277.2,127.3,277.2z"/>
				<path d="M11.2,78.4l-3.7,0c-0.6,0-1-0.4-1-1l0-14.1c0-0.6,0.4-1,1-1l3.7,0c0.6,0,1,0.4,1,1l0,14.1
					C12.2,77.9,11.8,78.4,11.2,78.4z"/>
				<path d="M10.6,100.7l-3.7,0c-0.6,0-1-0.4-1-1l0-14.1c0-0.6,0.4-1,1-1l3.7,0c0.6,0,1,0.4,1,1l0,14.1
					C11.6,100.3,11.1,100.7,10.6,100.7z"/>
			</g>
		</g>
	</g>
	<g>
		<g transform="translate(0.000000,512.000000) scale(0.100000,-0.100000)">
			<path class="st1" d="M730.3,4708.5c-18.3-2.1-32.1-16-34.1-34.6c-0.2-1.6-0.3-8.9-0.3-16.9v-14.2l-3.6-0.1
				c-3.3-0.1-3.8-0.2-5.5-1c-2.2-1-4.4-3-5.5-4.8c-1.6-2.7-1.6-2-1.6-33.4c0-23.2,0.1-29.2,0.4-30.3c1.3-5,5.2-8.5,10.1-9.2
				c1.1-0.2,18.2-0.3,46-0.2l44.2,0.1l1.7,0.6c3.6,1.4,6.5,4.1,7.9,7.4l0.6,1.6l0.1,29.4c0.1,28.9,0.1,29.5-0.5,31.3
				c-1,3.3-3.8,6.3-7.3,7.6c-1.3,0.5-2.3,0.7-5.2,0.8l-3.6,0.1v15.1c0,16.3-0.1,18-1.6,23c-0.9,3.2-3.1,7.8-5.2,10.9
				c-0.9,1.3-2.9,3.8-4.6,5.4c-5.7,5.7-12.3,9.3-20.1,10.8C739.4,4708.5,733.4,4708.8,730.3,4708.5z M740.1,4689.6
				c6.7-1.5,12.7-7.5,14.4-14.4c0.5-2,0.6-3.2,0.6-17.3v-15.1l-20.3,0.1l-20.3,0.1v15c0,13.7,0.1,15.2,0.5,17
				c2.1,8.1,8.6,14,16.6,15.1C733.8,4690.4,737.6,4690.2,740.1,4689.6z M738.9,4620.8c2-0.6,3.7-1.6,5.4-3.2c2.9-2.7,4.2-5.9,4.2-10
				c0-5-2.4-9.3-6.7-11.8l-1.3-0.8v-4.8c0-4.5-0.1-5-0.7-6c-0.9-1.6-2.6-2.7-4.5-2.9c-1.3-0.1-1.8-0.1-3.1,0.7
				c-1.2,0.7-1.7,1.1-2.3,2.3c-0.8,1.5-0.8,1.6-0.8,6.2v4.7l-0.9,0.5c-1.5,0.7-3.6,2.8-4.8,4.6c-4.5,6.9-1.9,16.1,5.5,19.6
				C732.3,4621.5,735.3,4621.8,738.9,4620.8z"/>
		</g>
	</g>
	<rect x="70.4" y="49.3" class="st1" width="6.3" height="5.6"/>
	<g>
		<path class="st1" d="M52.5,68.3c0-3.6,1.9-5.7,4.5-5.7c2.6,0,4.5,2.1,4.5,5.7c0,3.6-1.9,5.7-4.5,5.7C54.4,74,52.5,71.9,52.5,68.3z
			 M60.2,68.3c0-3-1.3-4.6-3.3-4.6c-2,0-3.3,1.6-3.3,4.6c0,3,1.3,4.6,3.3,4.6C58.9,72.9,60.2,71.3,60.2,68.3z"/>
		<path class="st1" d="M71.2,68.2c0,3.8-2.1,5.8-5.1,5.8c-1,0-2-0.2-2.7-0.6l0.5-0.9c0.6,0.4,1.3,0.5,2.2,0.5c2.4,0,4-1.6,4-4.6
			c0-0.3,0-0.6,0-0.9c-0.6,1.2-1.9,1.9-3.4,1.9c-2.2,0-3.8-1.3-3.8-3.4c0-2.1,1.6-3.4,3.8-3.4C69.5,62.6,71.2,64.6,71.2,68.2z
			 M69.6,66c0-1.2-1-2.4-3-2.4c-1.6,0-2.7,0.9-2.7,2.4c0,1.5,1.1,2.4,2.8,2.4C68.4,68.4,69.6,67.4,69.6,66z"/>
		<path class="st1" d="M72.8,66.3c0-0.5,0.4-0.9,0.8-0.9c0.5,0,0.9,0.4,0.9,0.9s-0.4,0.9-0.9,0.9C73.2,67.1,72.8,66.8,72.8,66.3z
			 M72.8,73.1c0-0.5,0.4-0.9,0.8-0.9c0.5,0,0.9,0.4,0.9,0.9S74.1,74,73.7,74C73.2,74,72.8,73.6,72.8,73.1z"/>
		<path class="st1" d="M85.7,70.9h-2.2v2.9h-1.2v-2.9H76v-0.8l5.9-7.4h1.3l-5.7,7.2h4.9v-2.6h1.1v2.6h2.2V70.9z"/>
		<path class="st1" d="M86.8,68.3c0-3.6,1.9-5.7,4.5-5.7c2.6,0,4.5,2.1,4.5,5.7c0,3.6-1.9,5.7-4.5,5.7C88.7,74,86.8,71.9,86.8,68.3z
			 M94.5,68.3c0-3-1.3-4.6-3.3-4.6c-2,0-3.3,1.6-3.3,4.6c0,3,1.3,4.6,3.3,4.6C93.2,72.9,94.5,71.3,94.5,68.3z"/>
	</g>
	<g>
		<path class="st1" d="M55.2,80.9l-1.9,4.2h-0.4l-1.9-4.2h0.5l1.6,3.6l1.6-3.6H55.2z"/>
		<path class="st1" d="M57.2,81.9v0.4c0,0-0.1,0-0.1,0c-0.7,0-1.1,0.4-1.1,1.2v1.6h-0.4v-3.2H56v0.6C56.2,82.1,56.6,81.9,57.2,81.9z
			"/>
		<path class="st1" d="M57.9,80.9c0-0.2,0.1-0.3,0.3-0.3s0.3,0.1,0.3,0.3c0,0.2-0.1,0.3-0.3,0.3C58,81.2,57.9,81.1,57.9,80.9z
			 M58,81.9h0.4v3.2H58V81.9z"/>
		<path class="st1" d="M58.5,86.1l0.2-0.3c0.1,0.1,0.3,0.2,0.5,0.2c0.3,0,0.5-0.2,0.5-0.6v-3.4H60v3.4c0,0.6-0.3,1-0.9,1
			C58.9,86.3,58.6,86.2,58.5,86.1z M59.5,80.9c0-0.2,0.1-0.3,0.3-0.3s0.3,0.1,0.3,0.3c0,0.2-0.1,0.3-0.3,0.3
			C59.7,81.2,59.5,81.1,59.5,80.9z"/>
		<path class="st1" d="M64.1,80.6v4.4h-0.4v-0.6c-0.3,0.4-0.7,0.7-1.2,0.7c-0.9,0-1.6-0.7-1.6-1.6s0.7-1.6,1.6-1.6
			c0.5,0,0.9,0.2,1.2,0.6v-1.9H64.1z M63.7,83.5c0-0.7-0.5-1.2-1.2-1.2c-0.7,0-1.2,0.5-1.2,1.2s0.5,1.2,1.2,1.2
			C63.2,84.7,63.7,84.2,63.7,83.5z"/>
		<path class="st1" d="M67.7,83.1v2h-0.4v-0.5c-0.2,0.3-0.6,0.5-1.1,0.5c-0.7,0-1.2-0.4-1.2-0.9c0-0.5,0.3-0.9,1.2-0.9h1v-0.2
			c0-0.5-0.3-0.8-0.9-0.8c-0.4,0-0.8,0.1-1,0.4l-0.2-0.3c0.3-0.3,0.8-0.4,1.3-0.4C67.2,81.9,67.7,82.3,67.7,83.1z M67.3,84.1v-0.5
			h-1c-0.6,0-0.8,0.2-0.8,0.6c0,0.4,0.3,0.6,0.8,0.6C66.7,84.8,67.1,84.5,67.3,84.1z"/>
		<path class="st1" d="M71.8,81.9v2.8c0,1.1-0.5,1.6-1.6,1.6c-0.6,0-1.1-0.2-1.5-0.5l0.2-0.3c0.3,0.3,0.8,0.4,1.2,0.4
			c0.8,0,1.2-0.4,1.2-1.1v-0.4c-0.3,0.4-0.7,0.6-1.2,0.6c-0.9,0-1.6-0.6-1.6-1.5c0-0.9,0.7-1.5,1.6-1.5c0.5,0,1,0.2,1.2,0.6v-0.6
			H71.8z M71.4,83.4c0-0.7-0.5-1.2-1.2-1.2c-0.7,0-1.2,0.5-1.2,1.2s0.5,1.2,1.2,1.2C70.9,84.6,71.4,84.1,71.4,83.4z"/>
		<path class="st1" d="M77.4,83.8c0,0.8-0.6,1.3-1.4,1.3c-1.1,0-1.7-0.8-1.7-2.1c0-1.4,0.8-2.2,1.9-2.2c0.4,0,0.7,0.1,1,0.2L77,81.4
			c-0.2-0.1-0.5-0.2-0.8-0.2c-0.9,0-1.5,0.6-1.5,1.7c0,0.1,0,0.2,0,0.3c0.2-0.5,0.7-0.7,1.3-0.7C76.8,82.6,77.4,83.1,77.4,83.8z
			 M77,83.8c0-0.6-0.4-0.9-1.1-0.9c-0.6,0-1.1,0.4-1.1,0.9c0,0.5,0.4,0.9,1.1,0.9C76.6,84.8,77,84.4,77,83.8z"/>
		<path class="st1" d="M85,83.3v1.8h-0.4v-1.8c0-0.7-0.3-1-0.9-1c-0.6,0-1.1,0.4-1.1,1.1v1.7h-0.4v-1.8c0-0.7-0.3-1-0.9-1
			c-0.6,0-1.1,0.4-1.1,1.1v1.7h-0.4v-3.2h0.4v0.6c0.2-0.4,0.6-0.6,1.2-0.6c0.5,0,0.9,0.2,1.1,0.7c0.2-0.4,0.7-0.7,1.2-0.7
			C84.5,81.9,85,82.3,85,83.3z"/>
		<path class="st1" d="M88.5,83.1v2h-0.4v-0.5c-0.2,0.3-0.6,0.5-1.1,0.5c-0.7,0-1.2-0.4-1.2-0.9c0-0.5,0.3-0.9,1.2-0.9h1v-0.2
			c0-0.5-0.3-0.8-0.9-0.8c-0.4,0-0.8,0.1-1,0.4L86,82.3c0.3-0.3,0.8-0.4,1.3-0.4C88,81.9,88.5,82.3,88.5,83.1z M88.1,84.1v-0.5h-1
			c-0.6,0-0.8,0.2-0.8,0.6c0,0.4,0.3,0.6,0.8,0.6C87.6,84.8,87.9,84.5,88.1,84.1z"/>
		<path class="st1" d="M92.1,83.1v2h-0.4v-0.5c-0.2,0.3-0.6,0.5-1.1,0.5c-0.7,0-1.2-0.4-1.2-0.9c0-0.5,0.3-0.9,1.2-0.9h1v-0.2
			c0-0.5-0.3-0.8-0.9-0.8c-0.4,0-0.8,0.1-1,0.4l-0.2-0.3c0.3-0.3,0.8-0.4,1.3-0.4C91.6,81.9,92.1,82.3,92.1,83.1z M91.6,84.1v-0.5
			h-1c-0.6,0-0.8,0.2-0.8,0.6c0,0.4,0.3,0.6,0.8,0.6C91.1,84.8,91.5,84.5,91.6,84.1z"/>
		<path class="st1" d="M94.8,81.9v0.4c0,0-0.1,0-0.1,0c-0.7,0-1.1,0.4-1.1,1.2v1.6h-0.4v-3.2h0.4v0.6C93.8,82.1,94.2,81.9,94.8,81.9
			z"/>
		<path class="st1" d="M97.4,84.9c-0.2,0.1-0.4,0.2-0.7,0.2c-0.6,0-0.9-0.3-0.9-0.9v-1.9h-0.6v-0.4h0.6v-0.7h0.4v0.7h1v0.4h-1v1.9
			c0,0.4,0.2,0.6,0.5,0.6c0.2,0,0.3-0.1,0.5-0.2L97.4,84.9z"/>
	</g>
	<path class="st1" d="M112.6,160.1H35.5c-4.6,0-8.3-3.7-8.3-8.3v-42.4c0-4.6,3.7-8.3,8.3-8.3h77.1c4.6,0,8.3,3.7,8.3,8.3v42.4
		C120.9,156.4,117.2,160.1,112.6,160.1z"/>
	<rect x="27.2" y="126.5" class="st2" width="93.7" height="0.5"/>
	<path class="st3" d="M54.9,121.1h-6.7c-1.9,0-3.5-1.6-3.5-3.5v-6.7c0-1.9,1.6-3.5,3.5-3.5h6.7c1.9,0,3.5,1.6,3.5,3.5v6.7
		C58.5,119.5,56.9,121.1,54.9,121.1z"/>
	<g>
		<circle class="st4" cx="51.6" cy="114.2" r="5.3"/>
		<polygon class="st1" points="51,117.6 47.6,114.4 48.8,113.1 50.8,115 54.9,110 56.3,111.1 		"/>
	</g>
	<g>
		<g>
			<path class="st5" d="M60.9,112.2c0.4-0.1,0.8-0.1,1.3-0.1c0.8,0,1.5,0.2,1.9,0.6c0.4,0.4,0.6,0.9,0.6,1.6c0,0.7-0.2,1.4-0.7,1.8
				c-0.4,0.4-1.1,0.7-2,0.7c-0.4,0-0.8,0-1.1-0.1V112.2z M61.5,116.2c0.1,0,0.4,0,0.6,0c1.3,0,1.9-0.7,1.9-1.9
				c0-1.1-0.6-1.8-1.9-1.8c-0.3,0-0.5,0-0.7,0.1V116.2z"/>
			<path class="st5" d="M67.2,116.7l0-0.4h0c-0.2,0.3-0.5,0.5-1,0.5c-0.7,0-1-0.5-1-0.9c0-0.8,0.7-1.2,2-1.2v-0.1
				c0-0.3-0.1-0.8-0.7-0.8c-0.3,0-0.6,0.1-0.9,0.2l-0.1-0.4c0.3-0.2,0.7-0.3,1.1-0.3c1,0,1.2,0.7,1.2,1.3v1.2c0,0.3,0,0.6,0.1,0.8
				H67.2z M67.1,115c-0.7,0-1.4,0.1-1.4,0.7c0,0.4,0.3,0.6,0.6,0.6c0.4,0,0.7-0.3,0.8-0.5c0-0.1,0-0.1,0-0.2V115z"/>
			<path class="st5" d="M68.7,111.9h0.6v4.8h-0.6V111.9z"/>
			<path class="st5" d="M70.6,115.2c0,0.8,0.5,1.1,1.1,1.1c0.4,0,0.7-0.1,0.9-0.2l0.1,0.4c-0.2,0.1-0.6,0.2-1.1,0.2
				c-1,0-1.6-0.7-1.6-1.7c0-1,0.6-1.8,1.5-1.8c1.1,0,1.4,0.9,1.4,1.5c0,0.1,0,0.2,0,0.3H70.6z M72.4,114.7c0-0.4-0.2-1-0.8-1
				c-0.6,0-0.9,0.6-0.9,1H72.4z"/>
			<path class="st5" d="M73.9,113.4l0.7,1.9c0.1,0.2,0.2,0.5,0.2,0.7h0c0.1-0.2,0.1-0.4,0.2-0.7l0.7-1.9h0.6l-0.9,2.3
				c-0.4,1.1-0.7,1.7-1.1,2.1c-0.3,0.3-0.6,0.4-0.7,0.4l-0.1-0.5c0.1,0,0.3-0.1,0.5-0.3c0.2-0.1,0.4-0.4,0.5-0.7c0-0.1,0-0.1,0-0.1
				c0,0,0-0.1,0-0.2l-1.2-3H73.9z"/>
			<path class="st5" d="M80.1,116.7l0-0.4h0c-0.2,0.3-0.5,0.5-1,0.5c-0.7,0-1-0.5-1-0.9c0-0.8,0.7-1.2,2-1.2v-0.1
				c0-0.3-0.1-0.8-0.7-0.8c-0.3,0-0.6,0.1-0.9,0.2l-0.1-0.4c0.3-0.2,0.7-0.3,1.1-0.3c1,0,1.2,0.7,1.2,1.3v1.2c0,0.3,0,0.6,0.1,0.8
				H80.1z M80.1,115c-0.7,0-1.4,0.1-1.4,0.7c0,0.4,0.3,0.6,0.6,0.6c0.4,0,0.7-0.3,0.8-0.5c0-0.1,0-0.1,0-0.2V115z"/>
			<path class="st5" d="M81.5,116.1c0.2,0.1,0.5,0.2,0.8,0.2c0.4,0,0.6-0.2,0.6-0.5c0-0.3-0.2-0.4-0.6-0.6c-0.6-0.2-0.9-0.5-0.9-0.9
				c0-0.5,0.4-1,1.1-1c0.3,0,0.6,0.1,0.8,0.2l-0.1,0.4c-0.1-0.1-0.4-0.2-0.7-0.2c-0.4,0-0.5,0.2-0.5,0.4c0,0.3,0.2,0.4,0.6,0.6
				c0.6,0.2,0.9,0.5,0.9,1c0,0.6-0.4,1-1.2,1c-0.4,0-0.7-0.1-0.9-0.2L81.5,116.1z"/>
			<path class="st5" d="M84.2,116.1c0.2,0.1,0.5,0.2,0.8,0.2c0.4,0,0.6-0.2,0.6-0.5c0-0.3-0.2-0.4-0.6-0.6c-0.6-0.2-0.9-0.5-0.9-0.9
				c0-0.5,0.4-1,1.1-1c0.3,0,0.6,0.1,0.8,0.2l-0.1,0.4c-0.1-0.1-0.4-0.2-0.7-0.2c-0.4,0-0.5,0.2-0.5,0.4c0,0.3,0.2,0.4,0.6,0.6
				c0.6,0.2,0.9,0.5,0.9,1c0,0.6-0.4,1-1.2,1c-0.4,0-0.7-0.1-0.9-0.2L84.2,116.1z"/>
			<path class="st5" d="M87.6,112.5c0,0.2-0.1,0.4-0.4,0.4c-0.2,0-0.4-0.2-0.4-0.4c0-0.2,0.2-0.4,0.4-0.4
				C87.5,112.1,87.6,112.3,87.6,112.5z M87,116.7v-3.3h0.6v3.3H87z"/>
			<path class="st5" d="M88.5,116.1c0.2,0.1,0.5,0.2,0.8,0.2c0.4,0,0.6-0.2,0.6-0.5c0-0.3-0.2-0.4-0.6-0.6c-0.6-0.2-0.9-0.5-0.9-0.9
				c0-0.5,0.4-1,1.1-1c0.3,0,0.6,0.1,0.8,0.2l-0.1,0.4c-0.1-0.1-0.4-0.2-0.7-0.2c-0.4,0-0.5,0.2-0.5,0.4c0,0.3,0.2,0.4,0.6,0.6
				c0.6,0.2,0.9,0.5,0.9,1c0,0.6-0.4,1-1.2,1c-0.4,0-0.7-0.1-0.9-0.2L88.5,116.1z"/>
			<path class="st5" d="M92,112.5v0.9h0.9v0.5H92v1.8c0,0.4,0.1,0.6,0.4,0.6c0.2,0,0.3,0,0.3,0l0,0.4c-0.1,0-0.3,0.1-0.5,0.1
				c-0.3,0-0.5-0.1-0.6-0.3c-0.2-0.2-0.2-0.5-0.2-0.9v-1.8h-0.5v-0.5h0.5v-0.8L92,112.5z"/>
			<path class="st5" d="M95.3,116.7l0-0.4h0c-0.2,0.3-0.5,0.5-1,0.5c-0.7,0-1-0.5-1-0.9c0-0.8,0.7-1.2,2-1.2v-0.1
				c0-0.3-0.1-0.8-0.7-0.8c-0.3,0-0.6,0.1-0.9,0.2l-0.1-0.4c0.3-0.2,0.7-0.3,1.1-0.3c1,0,1.2,0.7,1.2,1.3v1.2c0,0.3,0,0.6,0.1,0.8
				H95.3z M95.2,115c-0.7,0-1.4,0.1-1.4,0.7c0,0.4,0.3,0.6,0.6,0.6c0.4,0,0.7-0.3,0.8-0.5c0-0.1,0-0.1,0-0.2V115z"/>
			<path class="st5" d="M96.8,114.3c0-0.3,0-0.6,0-0.9h0.5l0,0.5h0c0.2-0.3,0.5-0.6,1.1-0.6c0.5,0,1.2,0.3,1.2,1.4v2H99v-1.9
				c0-0.5-0.2-1-0.8-1c-0.4,0-0.7,0.3-0.8,0.6c0,0.1,0,0.2,0,0.3v2h-0.6V114.3z"/>
			<path class="st5" d="M101.2,112.5v0.9h0.9v0.5h-0.9v1.8c0,0.4,0.1,0.6,0.4,0.6c0.2,0,0.3,0,0.3,0l0,0.4c-0.1,0-0.3,0.1-0.5,0.1
				c-0.3,0-0.5-0.1-0.6-0.3c-0.2-0.2-0.2-0.5-0.2-0.9v-1.8h-0.5v-0.5h0.5v-0.8L101.2,112.5z"/>
		</g>
	</g>
	<g>
		<path class="st5" d="M40.5,142.5c0,1.8-0.7,2.7-1.8,2.7c-1,0-1.7-1-1.7-2.7c0-1.7,0.8-2.7,1.8-2.7
			C39.9,139.9,40.5,140.9,40.5,142.5z M37.7,142.6c0,1.4,0.4,2.1,1.1,2.1c0.7,0,1.1-0.8,1.1-2.2c0-1.3-0.3-2.1-1.1-2.1
			C38.2,140.4,37.7,141.2,37.7,142.6z"/>
		<path class="st5" d="M41.1,143.8c0-0.7,0.4-1.1,1-1.4l0,0c-0.6-0.3-0.8-0.7-0.8-1.2c0-0.8,0.7-1.4,1.6-1.4c1,0,1.5,0.6,1.5,1.3
			c0,0.4-0.2,0.9-0.9,1.2v0c0.6,0.3,1,0.7,1,1.3c0,0.9-0.8,1.5-1.8,1.5C41.8,145.3,41.1,144.6,41.1,143.8z M43.9,143.8
			c0-0.6-0.4-0.9-1.1-1.1c-0.6,0.2-0.9,0.6-0.9,1.1c0,0.5,0.4,1,1,1C43.5,144.7,43.9,144.4,43.9,143.8z M42,141.2c0,0.5,0.4,0.8,1,1
			c0.4-0.2,0.8-0.5,0.8-0.9c0-0.4-0.2-0.8-0.9-0.8C42.3,140.4,42,140.8,42,141.2z"/>
		<path class="st5" d="M45.3,141.9c0-0.3,0.2-0.5,0.5-0.5s0.5,0.2,0.5,0.5c0,0.3-0.2,0.5-0.5,0.5C45.5,142.4,45.3,142.2,45.3,141.9z
			 M45.3,144.8c0-0.3,0.2-0.5,0.5-0.5s0.5,0.2,0.5,0.5c0,0.3-0.2,0.5-0.5,0.5C45.5,145.3,45.3,145,45.3,144.8z"/>
		<path class="st5" d="M50.4,142.5c0,1.8-0.7,2.7-1.8,2.7c-1,0-1.7-1-1.7-2.7c0-1.7,0.8-2.7,1.8-2.7
			C49.8,139.9,50.4,140.9,50.4,142.5z M47.6,142.6c0,1.4,0.4,2.1,1.1,2.1c0.7,0,1.1-0.8,1.1-2.2c0-1.3-0.3-2.1-1.1-2.1
			C48,140.4,47.6,141.2,47.6,142.6z"/>
		<path class="st5" d="M54.5,142.5c0,1.8-0.7,2.7-1.8,2.7c-1,0-1.7-1-1.7-2.7c0-1.7,0.8-2.7,1.8-2.7
			C53.9,139.9,54.5,140.9,54.5,142.5z M51.7,142.6c0,1.4,0.4,2.1,1.1,2.1c0.7,0,1.1-0.8,1.1-2.2c0-1.3-0.3-2.1-1.1-2.1
			C52.1,140.4,51.7,141.2,51.7,142.6z"/>
		<path class="st5" d="M57.1,139.8c0.3-0.1,0.8-0.1,1.3-0.1c0.7,0,1.1,0.1,1.5,0.4c0.3,0.2,0.4,0.5,0.4,1c0,0.5-0.3,1-0.9,1.2v0
			c0.5,0.1,1.1,0.6,1.1,1.4c0,0.5-0.2,0.8-0.5,1.1c-0.4,0.3-1,0.5-1.9,0.5c-0.5,0-0.8,0-1.1-0.1V139.8z M57.8,142.1h0.6
			c0.7,0,1.2-0.4,1.2-0.9c0-0.6-0.5-0.9-1.2-0.9c-0.3,0-0.5,0-0.6,0V142.1z M57.8,144.6c0.1,0,0.3,0,0.6,0c0.7,0,1.4-0.3,1.4-1
			c0-0.7-0.6-1-1.4-1h-0.6V144.6z"/>
		<path class="st5" d="M61.4,142.5c0-0.5,0-0.8,0-1.2H62l0,0.8h0c0.2-0.5,0.6-0.8,1.1-0.8c0.1,0,0.1,0,0.2,0v0.7c-0.1,0-0.1,0-0.2,0
			c-0.5,0-0.8,0.4-0.9,0.9c0,0.1,0,0.2,0,0.3v2.1h-0.7V142.5z"/>
		<path class="st5" d="M67.3,144.1c0,0.4,0,0.8,0,1.1h-0.6l0-0.6h0c-0.2,0.3-0.6,0.7-1.3,0.7c-0.6,0-1.3-0.3-1.3-1.7v-2.3h0.7v2.1
			c0,0.7,0.2,1.2,0.9,1.2c0.5,0,0.8-0.3,0.9-0.6c0-0.1,0.1-0.2,0.1-0.4v-2.4h0.7V144.1z"/>
		<path class="st5" d="M68.3,144.4c0.2,0.1,0.6,0.3,0.9,0.3c0.5,0,0.8-0.3,0.8-0.6c0-0.3-0.2-0.5-0.7-0.7c-0.7-0.2-1-0.6-1-1.1
			c0-0.6,0.5-1.1,1.3-1.1c0.4,0,0.7,0.1,1,0.2l-0.2,0.5c-0.2-0.1-0.4-0.2-0.8-0.2c-0.4,0-0.6,0.2-0.6,0.5c0,0.3,0.2,0.5,0.7,0.7
			c0.7,0.3,1,0.6,1,1.2c0,0.7-0.5,1.2-1.4,1.2c-0.4,0-0.8-0.1-1.1-0.3L68.3,144.4z"/>
		<path class="st5" d="M71.6,139.5h0.7v2.4h0c0.1-0.2,0.3-0.4,0.5-0.5c0.2-0.1,0.5-0.2,0.7-0.2c0.5,0,1.4,0.3,1.4,1.7v2.3h-0.7v-2.2
			c0-0.6-0.2-1.2-0.9-1.2c-0.5,0-0.8,0.3-0.9,0.7c0,0.1,0,0.2,0,0.3v2.3h-0.7V139.5z"/>
		<path class="st5" d="M78,141.3l0.8,2.3c0.1,0.3,0.2,0.6,0.2,0.8h0c0.1-0.2,0.2-0.5,0.2-0.8l0.8-2.3h0.7l-1.1,2.8
			c-0.5,1.3-0.8,2-1.3,2.4c-0.3,0.3-0.7,0.4-0.9,0.5l-0.2-0.6c0.2-0.1,0.4-0.2,0.6-0.3c0.2-0.2,0.4-0.4,0.6-0.8
			c0-0.1,0.1-0.1,0.1-0.2s0-0.1,0-0.2l-1.4-3.6H78z"/>
		<path class="st5" d="M84.9,143.2c0,1.4-1,2.1-1.9,2.1c-1,0-1.9-0.8-1.9-2c0-1.3,0.8-2.1,1.9-2.1C84.2,141.2,84.9,142,84.9,143.2z
			 M81.9,143.2c0,0.8,0.5,1.5,1.2,1.5c0.7,0,1.2-0.6,1.2-1.5c0-0.7-0.3-1.5-1.2-1.5C82.2,141.7,81.9,142.5,81.9,143.2z"/>
		<path class="st5" d="M89.1,144.1c0,0.4,0,0.8,0,1.1h-0.6l0-0.6h0c-0.2,0.3-0.6,0.7-1.3,0.7c-0.6,0-1.3-0.3-1.3-1.7v-2.3h0.7v2.1
			c0,0.7,0.2,1.2,0.9,1.2c0.5,0,0.8-0.3,0.9-0.6c0-0.1,0.1-0.2,0.1-0.4v-2.4h0.7V144.1z"/>
		<path class="st5" d="M90.2,142.5c0-0.5,0-0.8,0-1.2h0.6l0,0.8h0c0.2-0.5,0.6-0.8,1.1-0.8c0.1,0,0.1,0,0.2,0v0.7
			c-0.1,0-0.1,0-0.2,0c-0.5,0-0.8,0.4-0.9,0.9c0,0.1,0,0.2,0,0.3v2.1h-0.7V142.5z"/>
		<path class="st5" d="M95.4,140.2v1.1h1v0.5h-1v2.1c0,0.5,0.1,0.8,0.5,0.8c0.2,0,0.3,0,0.4,0l0,0.5c-0.1,0.1-0.4,0.1-0.6,0.1
			c-0.3,0-0.6-0.1-0.8-0.3c-0.2-0.2-0.3-0.6-0.3-1v-2.1h-0.6v-0.5h0.6v-0.9L95.4,140.2z"/>
		<path class="st5" d="M97.5,143.4c0,1,0.6,1.3,1.3,1.3c0.5,0,0.8-0.1,1.1-0.2l0.1,0.5c-0.2,0.1-0.7,0.2-1.3,0.2
			c-1.2,0-1.9-0.8-1.9-2c0-1.2,0.7-2.1,1.8-2.1c1.3,0,1.6,1.1,1.6,1.8c0,0.1,0,0.3,0,0.3H97.5z M99.6,142.9c0-0.4-0.2-1.1-1-1.1
			c-0.7,0-1,0.7-1.1,1.1H99.6z"/>
		<path class="st5" d="M101.5,143.4c0,1,0.6,1.3,1.3,1.3c0.5,0,0.8-0.1,1.1-0.2l0.1,0.5c-0.2,0.1-0.7,0.2-1.3,0.2
			c-1.2,0-1.9-0.8-1.9-2c0-1.2,0.7-2.1,1.8-2.1c1.3,0,1.6,1.1,1.6,1.8c0,0.1,0,0.3,0,0.3H101.5z M103.6,142.9c0-0.4-0.2-1.1-1-1.1
			c-0.7,0-1,0.7-1.1,1.1H103.6z"/>
		<path class="st5" d="M106,140.2v1.1h1v0.5h-1v2.1c0,0.5,0.1,0.8,0.5,0.8c0.2,0,0.3,0,0.4,0l0,0.5c-0.1,0.1-0.4,0.1-0.6,0.1
			c-0.3,0-0.6-0.1-0.8-0.3c-0.2-0.2-0.3-0.6-0.3-1v-2.1h-0.6v-0.5h0.6v-0.9L106,140.2z"/>
		<path class="st5" d="M107.8,139.5h0.7v2.4h0c0.1-0.2,0.3-0.4,0.5-0.5c0.2-0.1,0.5-0.2,0.7-0.2c0.5,0,1.4,0.3,1.4,1.7v2.3h-0.7
			v-2.2c0-0.6-0.2-1.2-0.9-1.2c-0.5,0-0.8,0.3-0.9,0.7c0,0.1,0,0.2,0,0.3v2.3h-0.7V139.5z"/>
	</g>
	<circle class="st6" cx="41.5" cy="259.3" r="9.9"/>
	<circle class="st6" cx="109.1" cy="259.4" r="9.9"/>
	<path class="st1" d="M92.7,275.3H56.5c-0.7,0-1.2-0.5-1.2-1.2l0,0c0-0.7,0.5-1.2,1.2-1.2h36.2c0.7,0,1.2,0.5,1.2,1.2l0,0
		C93.9,274.7,93.4,275.3,92.7,275.3z"/>
	<g>
		<circle class="st1" cx="108.9" cy="259.8" r="1.6"/>
		<path class="st1" d="M113.7,255.9h-1.5c-0.2,0-0.4-0.1-0.4-0.3l-0.1-0.4c-0.1-0.4-0.5-0.6-0.9-0.6h-3.7c-0.4,0-0.7,0.3-0.9,0.6
			l-0.1,0.4c-0.1,0.2-0.2,0.3-0.4,0.3h-1.5c-0.5,0-0.9,0.4-0.9,0.9v5.5c0,0.5,0.4,0.9,0.9,0.9h9.6c0.5,0,0.9-0.4,0.9-0.9v-5.5
			C114.6,256.3,114.2,255.9,113.7,255.9z M108.9,262.3c-1.4,0-2.5-1.1-2.5-2.5s1.1-2.5,2.5-2.5c1.4,0,2.5,1.1,2.5,2.5
			S110.3,262.3,108.9,262.3z M111.6,257.7c-0.3,0-0.5-0.2-0.5-0.5s0.2-0.5,0.5-0.5s0.5,0.2,0.5,0.5S111.9,257.7,111.6,257.7z"/>
		<path class="st1" d="M104.8,255.4h-0.9c-0.1,0-0.2-0.1-0.2-0.2s0.1-0.2,0.2-0.2h0.9c0.1,0,0.2,0.1,0.2,0.2
			S104.9,255.4,104.8,255.4z"/>
	</g>
	<path class="st1" d="M38.6,256.3c0,0.2,0.1,0.4,0.2,0.6l0.7,0.9c0.1,0.2,0.2,0.4,0.2,0.6v6.7c0,0.3,0.2,0.5,0.5,0.5h1.9
		c0.3,0,0.5-0.2,0.5-0.5v-6.7c0-0.2,0.1-0.4,0.2-0.6l0.7-0.9c0.1-0.2,0.2-0.4,0.2-0.6v-1.1h-5.1V256.3z M40.3,259.4
		c0-0.5,0.4-0.9,0.9-0.9c0.5,0,0.9,0.4,0.9,0.9v0.9c0,0.5-0.4,0.9-0.9,0.9c-0.5,0-0.9-0.4-0.9-0.9V259.4z"/>
	<path class="st1" d="M43.3,253.8h-4.2c-0.3,0-0.5,0.2-0.5,0.5v0.5h5.1v-0.5C43.8,254,43.5,253.8,43.3,253.8z"/>
	<circle class="st1" cx="41.2" cy="260.3" r="0.5"/>
</g>
<g>
	<path class="st1" d="M57.5,117.9c0,1.4-1.1,2.5-2.5,2.5H48c-1.4,0-2.5-1.1-2.5-2.5v-7.3c0-1.4,1.1-2.5,2.5-2.5h7.1
		c1.4,0,2.5,1.1,2.5,2.5V117.9z"/>
	<g>
		<path class="st7" d="M51.5,116.7l-3.2-3.3l0.8-0.8l2.4,2.5l3.6-3.7c-0.9-1.1-2.2-1.8-3.6-1.8c-2.5,0-4.5,2.1-4.5,4.7
			c0,2.6,2,4.7,4.5,4.7c2.5,0,4.5-2.1,4.5-4.7c0-0.6-0.1-1.3-0.4-1.8L51.5,116.7z"/>
		<path class="st1" d="M49.1,112.6l-0.8,0.8l3.2,3.3l4.1-4.3c0-0.1-0.1-0.2-0.1-0.3l-0.4-0.6c0,0,0,0-0.1-0.1l-3.6,3.7L49.1,112.6z"
			/>
	</g>
</g>
</svg>
