<svg xmlns="http://www.w3.org/2000/svg" width="66.45" height="51.984" viewBox="0 0 66.45 51.984">
  <g id="tea-bag-with-tag-svgrepo-com" transform="translate(0 -54.113)">
    <g id="Group_69" data-name="Group 69" transform="translate(0 54.113)">
      <path id="Path_80" data-name="Path 80" d="M1.931,106.1H42.792a1.931,1.931,0,0,0,1.931-1.931V78.817a5.542,5.542,0,0,0-1.334-3.327L31.98,63.555a5.169,5.169,0,0,0-3.266-1.4H24c2.284-4.8,7.691-7.386,13.982-4.363,4.32,2.076,7.835,5.827,11.09,9.467l-3.369,3.369L58.638,83.565l7.812-7.811L53.517,62.82l-2.912,2.912c-5.24-5.8-11.619-12.273-19.753-11.566-4.936.429-8,3.831-9.353,7.993h-5.49a5.172,5.172,0,0,0-3.266,1.4L1.334,75.489A5.549,5.549,0,0,0,0,78.816v25.349A1.931,1.931,0,0,0,1.931,106.1ZM53.4,68.279a1.581,1.581,0,0,1-2.236,2.236,1.549,1.549,0,0,1-.412-1.38c.208.231.417.468.623.7.943,1.04,2.475-.5,1.536-1.536l-.389-.431A1.538,1.538,0,0,1,53.4,68.279Zm-32,3.969c.412,1.334,2.51.765,2.1-.578-.076-.247-.141-.493-.2-.739a1.994,1.994,0,1,1-2.175.212C21.2,71.517,21.287,71.889,21.4,72.248ZM3.691,77.742l11.4-11.922a2.287,2.287,0,0,1,.922-.4h4.8a17.654,17.654,0,0,0-.11,2.309,5.255,5.255,0,1,0,2.143-.244A13,13,0,0,1,23,65.419h5.7a2.292,2.292,0,0,1,.922.389l11.4,11.928a2.619,2.619,0,0,1,.438,1.082v24.02H3.26V78.827A2.613,2.613,0,0,1,3.691,77.742Z" transform="translate(0 -54.113)" fill="#fff"/>
      <path id="Path_81" data-name="Path 81" d="M39.613,291.987H71.6a1.238,1.238,0,0,0,1.238-1.237V279.327H72.81c.005-.074.023-.137.023-.216a3.218,3.218,0,0,0-3.218-3.218,3.179,3.179,0,0,0-1.426.347,1.806,1.806,0,0,0-1.518-.829,1.851,1.851,0,0,0-.269.027,3.68,3.68,0,0,0-6.1,1.849,2.481,2.481,0,0,0-3.392.583,5.308,5.308,0,0,0-3.356-1.012,5.053,5.053,0,0,0-3.491,1.147,1.942,1.942,0,0,0-1.885-.035,1.843,1.843,0,0,0-3.5-.517,3.4,3.4,0,0,0-3.884,1.208,1.31,1.31,0,0,0-1.082-.6,1.325,1.325,0,0,0-1.319,1.262h-.016v11.422A1.238,1.238,0,0,0,39.613,291.987Z" transform="translate(-33.245 -244.993)" fill="#fff"/>
    </g>
  </g>
</svg>
